<?xml version="1.0" standalone="no"?>
 <!DOCTYPE svg PUBLIC "-//W3C//DTD SVG 1.1//EN" 
 "http://www.w3.org/Graphics/SVG/1.1/DTD/svg11.dtd"> 
<svg xmlns="http://www.w3.org/2000/svg" version="1.1" 
    width="29.7002cm" height="21.0007cm" viewBox="0 0 116930 82680 ">
<title>SVG Picture created as Placa do elevador 2 - macho-B.Mask.svg date 2018/11/08 21:35:51 </title>
  <desc>Picture generated by PCBNEW </desc>
<g style="fill:#000000; fill-opacity:1;stroke:#000000; stroke-opacity:1;
stroke-linecap:round; stroke-linejoin:round; "
 transform="translate(0 0) scale(1 1)">
</g>
<g style="fill:#000000; fill-opacity:0.0; 
stroke:#000000; stroke-width:-0.000393701; stroke-opacity:1; 
stroke-linecap:round; stroke-linejoin:round;">
</g>
<g style="fill:#000000; fill-opacity:0.0; 
stroke:#000000; stroke-width:59.0551; stroke-opacity:1; 
stroke-linecap:round; stroke-linejoin:round;">
<path d="M39500 42100
L79900 42100
" />
<path d="M39500 14500
L39500 42100
" />
<path d="M79900 37300
L79900 42100
" />
<path d="M79900 14500
L79900 37300
" />
<path d="M39500 14500
L79900 14500
" />
</g>
<g style="fill:#000000; fill-opacity:1.0; 
stroke:#000000; stroke-width:0; stroke-opacity:1; 
stroke-linecap:round; stroke-linejoin:round;">
<polyline style="fill-rule:evenodd;"
points="75256,36155
75416,36221
75558,36316
75560,36317
75682,36439
75778,36583
75844,36743
75878,36913
75878,37086
75844,37256
75778,37416
75682,37560
75560,37682
75560,37682
75416,37778
75416,37778
75416,37778
75256,37844
75086,37878
74913,37878
74743,37844
74583,37778
74583,37778
74583,37778
74439,37682
74439,37682
74317,37560
74221,37416
74155,37256
74121,37086
74121,36913
74155,36743
74221,36583
74317,36439
74439,36317
74441,36316
74583,36221
74743,36155
74913,36121
75086,36121
75256,36155
" /> 
<polyline style="fill-rule:evenodd;"
points="45256,36155
45416,36221
45558,36316
45560,36317
45682,36439
45778,36583
45844,36743
45878,36913
45878,37086
45844,37256
45778,37416
45682,37560
45560,37682
45560,37682
45416,37778
45416,37778
45416,37778
45256,37844
45086,37878
44913,37878
44743,37844
44583,37778
44583,37778
44583,37778
44439,37682
44439,37682
44317,37560
44221,37416
44155,37256
44121,37086
44121,36913
44155,36743
44221,36583
44317,36439
44439,36317
44441,36316
44583,36221
44743,36155
44913,36121
45086,36121
45256,36155
" /> 
<polyline style="fill-rule:evenodd;"
points="74905,32153
74919,32155
75244,32155
75244,32844
74555,32844
74555,32155
74880,32155
74890,32154
74899,32151
74900,32151
74905,32153
" /> 
<polyline style="fill-rule:evenodd;"
points="64846,31757
64880,31760
64923,31773
64945,31780
64965,31790
65004,31812
65057,31855
65100,31907
65113,31932
65132,31967
65132,31967
65152,32032
65152,32032
65157,32085
65159,32094
65161,32100
65159,32105
65157,32114
65152,32167
65144,32192
65132,32232
65125,32244
65100,32292
65057,32344
65004,32387
64965,32409
64945,32419
64923,32426
64880,32439
64846,32442
64829,32444
64795,32444
64778,32442
64745,32439
64701,32426
64680,32419
64660,32409
64620,32387
64567,32344
64524,32292
64499,32244
64492,32232
64480,32192
64473,32167
64466,32100
64473,32032
64492,31967
64492,31967
64511,31932
64524,31907
64567,31855
64620,31812
64660,31790
64680,31780
64701,31773
64745,31760
64778,31757
64795,31755
64829,31755
64846,31757
" /> 
<polyline style="fill-rule:evenodd;"
points="67519,32444
66830,32444
66830,32119
66829,32109
66826,32100
66826,32099
66828,32094
66830,32080
66830,31755
67519,31755
67519,32444
" /> 
<polyline style="fill-rule:evenodd;"
points="65633,31757
65667,31760
65710,31773
65732,31780
65752,31790
65792,31812
65844,31855
65887,31907
65901,31932
65919,31967
65919,31967
65939,32032
65939,32032
65944,32085
65946,32094
65948,32100
65946,32105
65944,32114
65939,32167
65931,32192
65919,32232
65913,32244
65887,32292
65844,32344
65792,32387
65752,32409
65732,32419
65710,32426
65667,32439
65633,32442
65616,32444
65583,32444
65566,32442
65532,32439
65489,32426
65467,32419
65447,32409
65407,32387
65355,32344
65312,32292
65286,32244
65280,32232
65268,32192
65260,32167
65255,32114
65253,32105
65251,32100
65253,32094
65255,32085
65260,32032
65260,32032
65280,31967
65280,31967
65298,31932
65312,31907
65355,31855
65407,31812
65447,31790
65467,31780
65489,31773
65532,31760
65566,31757
65583,31755
65616,31755
65633,31757
" /> 
<polyline style="fill-rule:evenodd;"
points="66421,31757
66454,31760
66498,31773
66519,31780
66539,31790
66579,31812
66632,31855
66675,31907
66688,31932
66707,31967
66707,31967
66726,32032
66726,32032
66732,32085
66734,32094
66736,32099
66735,32100
66732,32114
66726,32167
66719,32192
66707,32232
66700,32244
66675,32292
66632,32344
66579,32387
66539,32409
66519,32419
66498,32426
66454,32439
66421,32442
66404,32444
66370,32444
66353,32442
66319,32439
66276,32426
66254,32419
66234,32409
66195,32387
66142,32344
66099,32292
66074,32244
66067,32232
66055,32192
66047,32167
66042,32114
66040,32105
66038,32100
66040,32094
66042,32085
66047,32032
66047,32032
66067,31967
66067,31967
66086,31932
66099,31907
66142,31855
66195,31812
66234,31790
66254,31780
66276,31773
66319,31760
66353,31757
66370,31755
66404,31755
66421,31757
" /> 
<polyline style="fill-rule:evenodd;"
points="58071,31657
58105,31660
58148,31673
58170,31680
58190,31690
58230,31712
58282,31755
58325,31807
58346,31847
58357,31867
58357,31867
58377,31932
58377,31932
58382,31985
58384,31994
58386,32000
58384,32005
58382,32014
58377,32067
58367,32100
58357,32132
58347,32151
58325,32192
58282,32244
58230,32287
58190,32309
58170,32319
58148,32326
58105,32339
58071,32342
58054,32344
58020,32344
58004,32342
57970,32339
57926,32326
57905,32319
57885,32309
57845,32287
57793,32244
57749,32192
57728,32151
57717,32132
57708,32100
57698,32067
57691,32000
57698,31932
57717,31867
57717,31867
57728,31847
57749,31807
57793,31755
57845,31712
57885,31690
57905,31680
57926,31673
57970,31660
58004,31657
58020,31655
58054,31655
58071,31657
" /> 
<polyline style="fill-rule:evenodd;"
points="58858,31657
58892,31660
58936,31673
58957,31680
58977,31690
59017,31712
59069,31755
59113,31807
59134,31847
59145,31867
59145,31867
59164,31932
59164,31932
59169,31985
59171,31994
59173,32000
59171,32005
59169,32014
59164,32067
59154,32100
59145,32132
59134,32151
59113,32192
59069,32244
59017,32287
58977,32309
58957,32319
58936,32326
58892,32339
58858,32342
58842,32344
58808,32344
58791,32342
58757,32339
58714,32326
58692,32319
58672,32309
58632,32287
58580,32244
58537,32192
58515,32151
58505,32132
58495,32100
58485,32067
58480,32014
58478,32005
58476,32000
58478,31994
58480,31985
58485,31932
58485,31932
58505,31867
58505,31867
58516,31847
58537,31807
58580,31755
58632,31712
58672,31690
58692,31680
58714,31673
58757,31660
58791,31657
58808,31655
58842,31655
58858,31657
" /> 
<polyline style="fill-rule:evenodd;"
points="59646,31657
59680,31660
59723,31673
59745,31680
59765,31690
59804,31712
59857,31755
59900,31807
59921,31847
59932,31867
59932,31867
59952,31932
59952,31932
59957,31985
59959,31994
59961,31999
59960,32000
59957,32014
59952,32067
59942,32100
59932,32132
59922,32151
59900,32192
59857,32244
59804,32287
59765,32309
59745,32319
59723,32326
59680,32339
59646,32342
59629,32344
59595,32344
59578,32342
59545,32339
59501,32326
59480,32319
59460,32309
59420,32287
59367,32244
59324,32192
59302,32151
59292,32132
59282,32100
59273,32067
59267,32014
59265,32005
59263,32000
59265,31994
59267,31985
59273,31932
59273,31932
59292,31867
59292,31867
59303,31847
59324,31807
59367,31755
59420,31712
59460,31690
59480,31680
59501,31673
59545,31660
59578,31657
59595,31655
59629,31655
59646,31657
" /> 
<polyline style="fill-rule:evenodd;"
points="60744,32344
60055,32344
60055,32019
60054,32009
60051,32000
60051,31999
60053,31994
60055,31980
60055,31655
60744,31655
60744,32344
" /> 
<polyline style="fill-rule:evenodd;"
points="53833,31657
53867,31660
53910,31673
53932,31680
53952,31690
53992,31712
54044,31755
54087,31807
54109,31847
54119,31867
54119,31867
54139,31932
54139,31932
54144,31985
54146,31994
54148,32000
54146,32005
54144,32014
54139,32067
54129,32100
54119,32132
54109,32151
54087,32192
54044,32244
53992,32287
53952,32309
53932,32319
53910,32326
53867,32339
53833,32342
53816,32344
53783,32344
53766,32342
53732,32339
53689,32326
53667,32319
53647,32309
53607,32287
53555,32244
53512,32192
53490,32151
53480,32132
53470,32100
53460,32067
53455,32014
53453,32005
53451,32000
53453,31994
53455,31985
53460,31932
53460,31932
53480,31867
53480,31867
53490,31847
53512,31807
53555,31755
53607,31712
53647,31690
53667,31680
53689,31673
53732,31660
53766,31657
53783,31655
53816,31655
53833,31657
" /> 
<polyline style="fill-rule:evenodd;"
points="54621,31657
54654,31660
54698,31673
54719,31680
54739,31690
54779,31712
54832,31755
54875,31807
54896,31847
54907,31867
54907,31867
54926,31932
54926,31932
54932,31985
54934,31994
54936,31999
54935,32000
54932,32014
54926,32067
54917,32100
54907,32132
54897,32151
54875,32192
54832,32244
54779,32287
54739,32309
54719,32319
54698,32326
54654,32339
54621,32342
54604,32344
54570,32344
54553,32342
54519,32339
54476,32326
54454,32319
54434,32309
54395,32287
54342,32244
54299,32192
54277,32151
54267,32132
54257,32100
54247,32067
54242,32014
54240,32005
54238,32000
54240,31994
54242,31985
54247,31932
54247,31932
54267,31867
54267,31867
54278,31847
54299,31807
54342,31755
54395,31712
54434,31690
54454,31680
54476,31673
54519,31660
54553,31657
54570,31655
54604,31655
54621,31657
" /> 
<polyline style="fill-rule:evenodd;"
points="55719,32344
55030,32344
55030,32019
55029,32009
55026,32000
55026,31999
55028,31994
55030,31980
55030,31655
55719,31655
55719,32344
" /> 
<polyline style="fill-rule:evenodd;"
points="53046,31657
53080,31660
53123,31673
53145,31680
53165,31690
53204,31712
53257,31755
53300,31807
53321,31847
53332,31867
53332,31867
53352,31932
53352,31932
53357,31985
53359,31994
53361,32000
53359,32005
53357,32014
53352,32067
53342,32100
53332,32132
53322,32151
53300,32192
53257,32244
53204,32287
53165,32309
53145,32319
53123,32326
53080,32339
53046,32342
53029,32344
52995,32344
52978,32342
52945,32339
52901,32326
52880,32319
52860,32309
52820,32287
52767,32244
52724,32192
52702,32151
52692,32132
52682,32100
52673,32067
52666,32000
52673,31932
52692,31867
52692,31867
52703,31847
52724,31807
52767,31755
52820,31712
52860,31690
52880,31680
52901,31673
52945,31660
52978,31657
52995,31655
53029,31655
53046,31657
" /> 
<polyline style="fill-rule:evenodd;"
points="74905,31365
74914,31367
74935,31369
74967,31373
75010,31386
75032,31392
75052,31403
75092,31424
75144,31467
75187,31520
75209,31560
75219,31580
75219,31580
75239,31645
75246,31712
75239,31780
75229,31812
75219,31845
75214,31855
75187,31904
75144,31957
75092,32000
75052,32021
75032,32032
75010,32038
74967,32052
74935,32055
74914,32057
74905,32059
74900,32061
74899,32060
74885,32057
74864,32055
74832,32052
74789,32038
74767,32032
74747,32021
74707,32000
74655,31957
74612,31904
74585,31855
74580,31845
74570,31812
74560,31780
74553,31712
74560,31645
74580,31580
74580,31580
74590,31560
74612,31520
74655,31467
74707,31424
74747,31403
74767,31392
74789,31386
74832,31373
74864,31369
74885,31367
74894,31365
74900,31363
74905,31365
" /> 
<polyline style="fill-rule:evenodd;"
points="74905,30578
74914,30580
74935,30582
74967,30585
75010,30598
75032,30605
75052,30616
75092,30637
75144,30680
75187,30732
75209,30772
75219,30792
75219,30792
75239,30857
75246,30925
75239,30992
75235,31006
75219,31057
75209,31077
75187,31117
75144,31169
75092,31213
75052,31234
75032,31245
75010,31251
74967,31264
74935,31267
74914,31269
74905,31271
74900,31273
74894,31271
74885,31269
74864,31267
74832,31264
74789,31251
74767,31245
74747,31234
74707,31213
74655,31169
74612,31117
74590,31077
74580,31057
74564,31006
74560,30992
74553,30925
74560,30857
74580,30792
74580,30792
74590,30772
74612,30732
74655,30680
74707,30637
74747,30616
74767,30605
74789,30598
74832,30585
74864,30582
74885,30580
74894,30578
74900,30576
74905,30578
" /> 
<polyline style="fill-rule:evenodd;"
points="44705,30415
44714,30417
44735,30419
44767,30422
44810,30435
44832,30442
44852,30453
44892,30474
44944,30517
44987,30569
44996,30585
45019,30629
45019,30629
45039,30694
45046,30762
45039,30829
45031,30857
45019,30894
45009,30914
44987,30954
44944,31006
44892,31050
44852,31071
44832,31082
44810,31088
44767,31101
44733,31105
44716,31106
44683,31106
44666,31105
44632,31101
44589,31088
44567,31082
44547,31071
44507,31050
44455,31006
44412,30954
44390,30914
44380,30894
44368,30857
44360,30829
44353,30762
44360,30694
44380,30629
44380,30629
44403,30585
44412,30569
44455,30517
44507,30474
44547,30453
44567,30442
44589,30435
44632,30422
44664,30419
44685,30417
44694,30415
44700,30413
44705,30415
" /> 
<polyline style="fill-rule:evenodd;"
points="74933,29794
74967,29798
75010,29811
75032,29817
75052,29828
75092,29849
75144,29893
75187,29945
75209,29985
75219,30005
75219,30005
75239,30070
75246,30137
75239,30205
75235,30219
75219,30270
75209,30290
75187,30330
75144,30382
75092,30425
75060,30442
75032,30457
75010,30464
74967,30477
74935,30480
74914,30482
74905,30484
74900,30486
74894,30484
74885,30482
74864,30480
74832,30477
74789,30464
74767,30457
74739,30442
74707,30425
74655,30382
74612,30330
74590,30290
74580,30270
74564,30219
74560,30205
74553,30137
74560,30070
74580,30005
74580,30005
74590,29985
74612,29945
74655,29893
74707,29849
74747,29828
74767,29817
74789,29811
74832,29798
74866,29794
74883,29793
74916,29793
74933,29794
" /> 
<polyline style="fill-rule:evenodd;"
points="44705,29628
44714,29630
44735,29632
44767,29635
44810,29648
44832,29654
44852,29665
44892,29686
44944,29730
44987,29782
44996,29798
45019,29842
45019,29842
45039,29907
45046,29974
45039,30042
45031,30070
45019,30107
45009,30127
44987,30167
44944,30219
44892,30262
44852,30283
44832,30294
44810,30301
44767,30314
44735,30317
44714,30319
44705,30321
44700,30323
44694,30321
44685,30319
44664,30317
44632,30314
44589,30301
44567,30294
44547,30283
44507,30262
44455,30219
44412,30167
44390,30127
44380,30107
44368,30070
44360,30042
44353,29974
44360,29907
44380,29842
44380,29842
44403,29798
44412,29782
44455,29730
44507,29686
44547,29665
44567,29654
44589,29648
44632,29635
44664,29632
44685,29630
44694,29628
44700,29626
44705,29628
" /> 
<polyline style="fill-rule:evenodd;"
points="44700,28839
44714,28842
44735,28844
44767,28847
44810,28861
44832,28867
44852,28878
44892,28899
44944,28942
44987,28995
45009,29034
45019,29054
45019,29054
45039,29119
45046,29187
45039,29254
45026,29298
45019,29319
45009,29339
44987,29379
44944,29432
44892,29475
44852,29496
44832,29507
44810,29513
44767,29526
44735,29530
44714,29532
44705,29534
44700,29536
44694,29534
44685,29532
44664,29530
44632,29526
44589,29513
44567,29507
44547,29496
44507,29475
44455,29432
44412,29379
44390,29339
44380,29319
44373,29298
44360,29254
44353,29187
44360,29119
44380,29054
44380,29054
44390,29034
44412,28995
44455,28942
44507,28899
44547,28878
44567,28867
44589,28861
44632,28847
44664,28844
44685,28842
44694,28840
44699,28838
44700,28839
" /> 
<polyline style="fill-rule:evenodd;"
points="45044,28744
44719,28744
44709,28745
44700,28748
44699,28748
44694,28746
44680,28744
44355,28744
44355,28055
45044,28055
45044,28744
" /> 
<polyline style="fill-rule:evenodd;"
points="53306,23820
53352,23829
53423,23859
53488,23902
53543,23957
53586,24021
53615,24093
53631,24169
53631,24246
53615,24322
53586,24394
53543,24458
53488,24513
53423,24556
53352,24586
53306,24595
53276,24601
53198,24601
53168,24595
53122,24586
53050,24556
52986,24513
52931,24458
52888,24394
52858,24322
52843,24246
52843,24169
52858,24093
52888,24021
52931,23957
52986,23902
53050,23859
53122,23829
53168,23820
53198,23814
53276,23814
53306,23820
" /> 
<polyline style="fill-rule:evenodd;"
points="54397,23820
54442,23829
54514,23859
54578,23902
54633,23957
54676,24021
54706,24093
54721,24169
54721,24246
54706,24322
54676,24394
54633,24458
54578,24513
54514,24556
54442,24586
54397,24595
54366,24601
54289,24601
54258,24595
54213,24586
54141,24556
54076,24513
54022,24458
53979,24394
53949,24322
53934,24246
53934,24169
53949,24093
53979,24021
54022,23957
54076,23902
54141,23859
54213,23829
54258,23820
54289,23814
54366,23814
54397,23820
" /> 
<polyline style="fill-rule:evenodd;"
points="55487,23820
55533,23829
55604,23859
55669,23902
55724,23957
55767,24021
55797,24093
55812,24169
55812,24246
55797,24322
55767,24394
55724,24458
55669,24513
55604,24556
55533,24586
55487,24595
55457,24601
55379,24601
55349,24595
55303,24586
55232,24556
55167,24513
55112,24458
55069,24394
55039,24322
55024,24246
55024,24169
55039,24093
55069,24021
55112,23957
55167,23902
55232,23859
55303,23829
55349,23820
55379,23814
55457,23814
55487,23820
" /> 
<polyline style="fill-rule:evenodd;"
points="56578,23820
56623,23829
56695,23859
56760,23902
56814,23957
56857,24021
56887,24093
56902,24169
56902,24246
56887,24322
56857,24394
56814,24458
56760,24513
56695,24556
56623,24586
56578,24595
56547,24601
56470,24601
56439,24595
56394,24586
56322,24556
56258,24513
56203,24458
56160,24394
56130,24322
56115,24246
56115,24169
56130,24093
56160,24021
56203,23957
56258,23902
56322,23859
56394,23829
56439,23820
56470,23814
56547,23814
56578,23820
" /> 
<polyline style="fill-rule:evenodd;"
points="57668,23820
57714,23829
57786,23859
57850,23902
57905,23957
57948,24021
57978,24093
57993,24169
57993,24246
57978,24322
57948,24394
57905,24458
57850,24513
57786,24556
57714,24586
57668,24595
57638,24601
57560,24601
57530,24595
57484,24586
57413,24556
57348,24513
57293,24458
57250,24394
57221,24322
57205,24246
57205,24169
57221,24093
57250,24021
57293,23957
57348,23902
57413,23859
57484,23829
57530,23820
57560,23814
57638,23814
57668,23820
" /> 
<polyline style="fill-rule:evenodd;"
points="60940,23820
60986,23829
61057,23859
61122,23902
61177,23957
61220,24021
61249,24093
61264,24169
61264,24246
61249,24322
61220,24394
61177,24458
61122,24513
61057,24556
60986,24586
60940,24595
60910,24601
60832,24601
60802,24595
60756,24586
60684,24556
60620,24513
60565,24458
60522,24394
60492,24322
60477,24246
60477,24169
60492,24093
60522,24021
60565,23957
60620,23902
60684,23859
60756,23829
60802,23820
60832,23814
60910,23814
60940,23820
" /> 
<polyline style="fill-rule:evenodd;"
points="58759,23820
58804,23829
58876,23859
58941,23902
58995,23957
59039,24021
59068,24093
59083,24169
59083,24246
59068,24322
59039,24394
58995,24458
58941,24513
58876,24556
58804,24586
58759,24595
58728,24601
58651,24601
58620,24595
58575,24586
58503,24556
58439,24513
58384,24458
58341,24394
58311,24322
58296,24246
58296,24169
58311,24093
58341,24021
58384,23957
58439,23902
58503,23859
58575,23829
58620,23820
58651,23814
58728,23814
58759,23820
" /> 
<polyline style="fill-rule:evenodd;"
points="62031,23820
62076,23829
62148,23859
62212,23902
62267,23957
62310,24021
62340,24093
62355,24169
62355,24246
62340,24322
62310,24394
62267,24458
62212,24513
62148,24556
62076,24586
62031,24595
62000,24601
61923,24601
61892,24595
61846,24586
61775,24556
61710,24513
61656,24458
61612,24394
61583,24322
61568,24246
61568,24169
61583,24093
61612,24021
61656,23957
61710,23902
61775,23859
61846,23829
61892,23820
61923,23814
62000,23814
62031,23820
" /> 
<polyline style="fill-rule:evenodd;"
points="63121,23820
63167,23829
63238,23859
63303,23902
63358,23957
63401,24021
63430,24093
63446,24169
63446,24246
63430,24322
63401,24394
63358,24458
63303,24513
63238,24556
63167,24586
63121,24595
63091,24601
63013,24601
62983,24595
62937,24586
62865,24556
62801,24513
62746,24458
62703,24394
62673,24322
62658,24246
62658,24169
62673,24093
62703,24021
62746,23957
62801,23902
62865,23859
62937,23829
62983,23820
63013,23814
63091,23814
63121,23820
" /> 
<polyline style="fill-rule:evenodd;"
points="65302,23820
65348,23829
65419,23859
65484,23902
65539,23957
65582,24021
65612,24093
65627,24169
65627,24246
65612,24322
65582,24394
65539,24458
65484,24513
65419,24556
65348,24586
65302,24595
65272,24601
65194,24601
65164,24595
65118,24586
65046,24556
64982,24513
64927,24458
64884,24394
64854,24322
64839,24246
64839,24169
64854,24093
64884,24021
64927,23957
64982,23902
65046,23859
65118,23829
65164,23820
65194,23814
65272,23814
65302,23820
" /> 
<polyline style="fill-rule:evenodd;"
points="66717,24601
65930,24601
65930,23814
66717,23814
66717,24601
" /> 
<polyline style="fill-rule:evenodd;"
points="64212,23820
64257,23829
64329,23859
64393,23902
64448,23957
64491,24021
64521,24093
64536,24169
64536,24246
64521,24322
64491,24394
64448,24458
64393,24513
64329,24556
64257,24586
64212,24595
64181,24601
64104,24601
64073,24595
64028,24586
63956,24556
63891,24513
63837,24458
63794,24394
63764,24322
63749,24246
63749,24169
63764,24093
63794,24021
63837,23957
63891,23902
63956,23859
64028,23829
64073,23820
64104,23814
64181,23814
64212,23820
" /> 
<polyline style="fill-rule:evenodd;"
points="59849,23820
59895,23829
59967,23859
60031,23902
60086,23957
60129,24021
60159,24093
60174,24169
60174,24246
60159,24322
60129,24394
60086,24458
60031,24513
59967,24556
59895,24586
59849,24595
59819,24601
59741,24601
59711,24595
59665,24586
59594,24556
59529,24513
59474,24458
59431,24394
59402,24322
59387,24246
59387,24169
59402,24093
59431,24021
59474,23957
59529,23902
59594,23859
59665,23829
59711,23820
59741,23814
59819,23814
59849,23820
" /> 
<polyline style="fill-rule:evenodd;"
points="69305,22816
69462,22881
69604,22976
69725,23096
69819,23238
69885,23396
69918,23563
69918,23734
69885,23901
69819,24059
69725,24201
69604,24321
69462,24416
69305,24481
69137,24515
68967,24515
68799,24481
68642,24416
68500,24321
68379,24201
68284,24059
68219,23901
68186,23734
68186,23563
68219,23396
68284,23238
68379,23096
68500,22976
68642,22881
68799,22816
68967,22782
69137,22782
69305,22816
" /> 
<polyline style="fill-rule:evenodd;"
points="50761,22816
50919,22881
51061,22976
51181,23096
51276,23238
51341,23396
51375,23563
51375,23734
51341,23901
51276,24059
51181,24201
51061,24321
50919,24416
50761,24481
50594,24515
50423,24515
50256,24481
50098,24416
49956,24321
49836,24201
49741,24059
49676,23901
49642,23734
49642,23563
49676,23396
49741,23238
49836,23096
49956,22976
50098,22881
50256,22816
50423,22782
50594,22782
50761,22816
" /> 
<polyline style="fill-rule:evenodd;"
points="62576,22702
62621,22711
62693,22741
62758,22784
62812,22838
62855,22903
62885,22975
62900,23051
62900,23128
62885,23204
62855,23276
62812,23340
62758,23395
62693,23438
62621,23468
62576,23477
62545,23483
62468,23483
62437,23477
62392,23468
62320,23438
62256,23395
62201,23340
62158,23276
62128,23204
62113,23128
62113,23051
62128,22975
62158,22903
62201,22838
62256,22784
62320,22741
62392,22711
62437,22702
62468,22696
62545,22696
62576,22702
" /> 
<polyline style="fill-rule:evenodd;"
points="57123,22702
57169,22711
57240,22741
57305,22784
57360,22838
57403,22903
57432,22975
57448,23051
57448,23128
57432,23204
57403,23276
57360,23340
57305,23395
57240,23438
57169,23468
57123,23477
57093,23483
57015,23483
56985,23477
56939,23468
56867,23438
56803,23395
56748,23340
56705,23276
56675,23204
56660,23128
56660,23051
56675,22975
56705,22903
56748,22838
56803,22784
56867,22741
56939,22711
56985,22702
57015,22696
57093,22696
57123,22702
" /> 
<polyline style="fill-rule:evenodd;"
points="54942,22702
54988,22711
55059,22741
55124,22784
55179,22838
55222,22903
55251,22975
55266,23051
55266,23128
55251,23204
55222,23276
55179,23340
55124,23395
55059,23438
54988,23468
54942,23477
54912,23483
54834,23483
54804,23477
54758,23468
54686,23438
54622,23395
54567,23340
54524,23276
54494,23204
54479,23128
54479,23051
54494,22975
54524,22903
54567,22838
54622,22784
54686,22741
54758,22711
54804,22702
54834,22696
54912,22696
54942,22702
" /> 
<polyline style="fill-rule:evenodd;"
points="56032,22702
56078,22711
56150,22741
56214,22784
56269,22838
56312,22903
56342,22975
56357,23051
56357,23128
56342,23204
56312,23276
56269,23340
56214,23395
56150,23438
56078,23468
56032,23477
56002,23483
55925,23483
55894,23477
55848,23468
55777,23438
55712,23395
55657,23340
55614,23276
55585,23204
55570,23128
55570,23051
55585,22975
55614,22903
55657,22838
55712,22784
55777,22741
55848,22711
55894,22702
55925,22696
56002,22696
56032,22702
" /> 
<polyline style="fill-rule:evenodd;"
points="53851,22702
53897,22711
53969,22741
54033,22784
54088,22838
54131,22903
54161,22975
54176,23051
54176,23128
54161,23204
54131,23276
54088,23340
54033,23395
53969,23438
53897,23468
53851,23477
53821,23483
53743,23483
53713,23477
53667,23468
53596,23438
53531,23395
53476,23340
53433,23276
53404,23204
53388,23128
53388,23051
53404,22975
53433,22903
53476,22838
53531,22784
53596,22741
53667,22711
53713,22702
53743,22696
53821,22696
53851,22702
" /> 
<polyline style="fill-rule:evenodd;"
points="59304,22702
59350,22711
59421,22741
59486,22784
59541,22838
59584,22903
59614,22975
59629,23051
59629,23128
59614,23204
59584,23276
59541,23340
59486,23395
59421,23438
59350,23468
59304,23477
59274,23483
59196,23483
59166,23477
59120,23468
59048,23438
58984,23395
58929,23340
58886,23276
58856,23204
58841,23128
58841,23051
58856,22975
58886,22903
58929,22838
58984,22784
59048,22741
59120,22711
59166,22702
59196,22696
59274,22696
59304,22702
" /> 
<polyline style="fill-rule:evenodd;"
points="60395,22702
60440,22711
60512,22741
60576,22784
60631,22838
60674,22903
60704,22975
60719,23051
60719,23128
60704,23204
60674,23276
60631,23340
60576,23395
60512,23438
60440,23468
60395,23477
60364,23483
60287,23483
60256,23477
60211,23468
60139,23438
60075,23395
60020,23340
59977,23276
59947,23204
59932,23128
59932,23051
59947,22975
59977,22903
60020,22838
60075,22784
60139,22741
60211,22711
60256,22702
60287,22696
60364,22696
60395,22702
" /> 
<polyline style="fill-rule:evenodd;"
points="61485,22702
61531,22711
61603,22741
61667,22784
61722,22838
61765,22903
61795,22975
61810,23051
61810,23128
61795,23204
61765,23276
61722,23340
61667,23395
61603,23438
61531,23468
61485,23477
61455,23483
61377,23483
61347,23477
61301,23468
61230,23438
61165,23395
61110,23340
61067,23276
61037,23204
61022,23128
61022,23051
61037,22975
61067,22903
61110,22838
61165,22784
61230,22741
61301,22711
61347,22702
61377,22696
61455,22696
61485,22702
" /> 
<polyline style="fill-rule:evenodd;"
points="63666,22702
63712,22711
63784,22741
63848,22784
63903,22838
63946,22903
63976,22975
63991,23051
63991,23128
63976,23204
63946,23276
63903,23340
63848,23395
63784,23438
63712,23468
63666,23477
63636,23483
63558,23483
63528,23477
63482,23468
63411,23438
63346,23395
63291,23340
63248,23276
63219,23204
63203,23128
63203,23051
63219,22975
63248,22903
63291,22838
63346,22784
63411,22741
63482,22711
63528,22702
63558,22696
63636,22696
63666,22702
" /> 
<polyline style="fill-rule:evenodd;"
points="64757,22702
64803,22711
64874,22741
64939,22784
64993,22838
65037,22903
65066,22975
65081,23051
65081,23128
65066,23204
65037,23276
64993,23340
64939,23395
64874,23438
64803,23468
64757,23477
64726,23483
64649,23483
64618,23477
64573,23468
64501,23438
64437,23395
64382,23340
64339,23276
64309,23204
64294,23128
64294,23051
64309,22975
64339,22903
64382,22838
64437,22784
64501,22741
64573,22711
64618,22702
64649,22696
64726,22696
64757,22702
" /> 
<polyline style="fill-rule:evenodd;"
points="65847,22702
65893,22711
65965,22741
66029,22784
66084,22838
66127,22903
66157,22975
66172,23051
66172,23128
66157,23204
66127,23276
66084,23340
66029,23395
65965,23438
65893,23468
65847,23477
65817,23483
65739,23483
65709,23477
65663,23468
65592,23438
65527,23395
65472,23340
65429,23276
65400,23204
65385,23128
65385,23051
65400,22975
65429,22903
65472,22838
65527,22784
65592,22741
65663,22711
65709,22702
65739,22696
65817,22696
65847,22702
" /> 
<polyline style="fill-rule:evenodd;"
points="58214,22702
58259,22711
58331,22741
58395,22784
58450,22838
58493,22903
58523,22975
58538,23051
58538,23128
58523,23204
58493,23276
58450,23340
58395,23395
58331,23438
58259,23468
58214,23477
58183,23483
58106,23483
58075,23477
58030,23468
57958,23438
57893,23395
57839,23340
57795,23276
57766,23204
57751,23128
57751,23051
57766,22975
57795,22903
57839,22838
57893,22784
57958,22741
58030,22711
58075,22702
58106,22696
58183,22696
58214,22702
" /> 
<polyline style="fill-rule:evenodd;"
points="75705,19453
75719,19455
76044,19455
76044,20144
75355,20144
75355,19455
75680,19455
75690,19454
75699,19451
75700,19451
75705,19453
" /> 
<polyline style="fill-rule:evenodd;"
points="75705,18665
75714,18667
75735,18669
75767,18673
75798,18682
75832,18692
75852,18703
75892,18724
75944,18767
75987,18820
76009,18860
76019,18880
76019,18880
76039,18945
76046,19012
76039,19080
76026,19123
76019,19145
76009,19165
75987,19204
75944,19257
75892,19300
75852,19321
75832,19332
75810,19338
75767,19352
75735,19355
75714,19357
75705,19359
75700,19361
75699,19360
75685,19357
75664,19355
75632,19352
75589,19338
75567,19332
75547,19321
75507,19300
75455,19257
75412,19204
75390,19165
75380,19145
75373,19123
75360,19080
75353,19012
75360,18945
75380,18880
75380,18880
75390,18860
75412,18820
75455,18767
75507,18724
75547,18703
75567,18692
75601,18682
75632,18673
75664,18669
75685,18667
75694,18665
75700,18663
75705,18665
" /> 
<polyline style="fill-rule:evenodd;"
points="45230,17149
45256,17155
45416,17221
45542,17305
45560,17317
45682,17439
45682,17439
45726,17505
45778,17583
45844,17743
45878,17913
45878,18086
45877,18092
45844,18256
45778,18416
45742,18469
45682,18560
45560,18682
45560,18682
45416,18778
45416,18778
45416,18778
45256,18844
45086,18878
44913,18878
44743,18844
44583,18778
44583,18778
44583,18778
44439,18682
44439,18682
44317,18560
44257,18469
44221,18416
44155,18256
44122,18092
44121,18086
44121,17913
44155,17743
44221,17583
44273,17505
44317,17439
44317,17439
44439,17317
44457,17305
44583,17221
44743,17155
44769,17149
44913,17121
45086,17121
45230,17149
" /> 
<polyline style="fill-rule:evenodd;"
points="75705,17878
75714,17880
75735,17882
75767,17885
75810,17898
75832,17905
75847,17913
75892,17937
75944,17980
75987,18032
76009,18072
76019,18092
76019,18092
76039,18157
76046,18225
76039,18292
76026,18336
76019,18357
76009,18377
75987,18417
75944,18469
75892,18513
75852,18534
75832,18545
75810,18551
75767,18564
75735,18567
75714,18569
75705,18571
75700,18573
75694,18571
75685,18569
75664,18567
75632,18564
75589,18551
75567,18545
75547,18534
75507,18513
75455,18469
75412,18417
75390,18377
75380,18357
75373,18336
75360,18292
75353,18225
75360,18157
75380,18092
75380,18092
75390,18072
75412,18032
75455,17980
75507,17937
75552,17913
75567,17905
75589,17898
75632,17885
75664,17882
75685,17880
75694,17878
75700,17876
75705,17878
" /> 
<polyline style="fill-rule:evenodd;"
points="75733,17094
75767,17098
75810,17111
75832,17117
75838,17121
75892,17149
75944,17193
75987,17245
76009,17285
76019,17305
76019,17305
76039,17370
76046,17437
76039,17505
76026,17548
76019,17570
76012,17583
75987,17630
75944,17682
75892,17725
75858,17743
75832,17757
75810,17764
75767,17777
75735,17780
75714,17782
75705,17784
75700,17786
75694,17784
75685,17782
75664,17780
75632,17777
75589,17764
75567,17757
75541,17743
75507,17725
75455,17682
75412,17630
75387,17583
75380,17570
75373,17548
75360,17505
75353,17437
75360,17370
75380,17305
75380,17305
75390,17285
75412,17245
75455,17193
75507,17149
75561,17121
75567,17117
75589,17111
75632,17098
75666,17094
75683,17093
75716,17093
75733,17094
" /> 
</g> 
</svg>
