<?xml version="1.0" standalone="no"?>
 <!DOCTYPE svg PUBLIC "-//W3C//DTD SVG 1.1//EN" 
 "http://www.w3.org/Graphics/SVG/1.1/DTD/svg11.dtd"> 
<svg xmlns="http://www.w3.org/2000/svg" version="1.1" 
    width="29.7002cm" height="21.0007cm" viewBox="0 0 116930 82680 ">
<title>SVG Picture created as Placa do elevador 2 - macho-F.SilkS.svg date 2018/11/08 21:35:51 </title>
  <desc>Picture generated by PCBNEW </desc>
<g style="fill:#000000; fill-opacity:1;stroke:#000000; stroke-opacity:1;
stroke-linecap:round; stroke-linejoin:round; "
 transform="translate(0 0) scale(1 1)">
</g>
<g style="fill:#000000; fill-opacity:0.0; 
stroke:#000000; stroke-width:-0.000393701; stroke-opacity:1; 
stroke-linecap:round; stroke-linejoin:round;">
</g>
<g style="fill:#000000; fill-opacity:0.0; 
stroke:#000000; stroke-width:59.0551; stroke-opacity:1; 
stroke-linecap:round; stroke-linejoin:round;">
<path d="M39500 42100
L79900 42100
" />
<path d="M39500 14500
L39500 42100
" />
<path d="M79900 37300
L79900 42100
" />
<path d="M79900 14500
L79900 37300
" />
<path d="M39500 14500
L79900 14500
" />
</g>
<g style="fill:#000000; fill-opacity:0.0; 
stroke:#000000; stroke-width:47.2441; stroke-opacity:1; 
stroke-linecap:round; stroke-linejoin:round;">
<circle cx="45000" cy="18000" r="900" /> 
<circle cx="45000" cy="37000" r="900" /> 
<path d="M66324 25121
L66422 25292
" />
<path d="M66225 25292
L66324 25121
" />
<path d="M66422 25292
L66225 25292
" />
<path d="M49304 24940
L49304 19215
" />
<path d="M70257 24940
L49304 24940
" />
<path d="M70257 19215
L70257 24940
" />
<path d="M44700 27982
L45117 27982
" />
<path d="M45117 27982
L45117 28400
" />
<path d="M45117 28793
L45117 31179
" />
<path d="M44282 31179
L45117 31179
" />
<path d="M44282 28793
L44282 31179
" />
<path d="M44282 28793
L45117 28793
" />
<path d="M75317 32106
L74482 32106
" />
<path d="M75317 32106
L75317 29720
" />
<path d="M75317 29720
L74482 29720
" />
<path d="M74482 32106
L74482 29720
" />
<path d="M74482 32917
L74482 32500
" />
<path d="M74900 32917
L74482 32917
" />
<path d="M67592 32100
L67592 32517
" />
<path d="M67592 32517
L67174 32517
" />
<path d="M66781 32517
L64395 32517
" />
<path d="M64395 31682
L64395 32517
" />
<path d="M66781 31682
L64395 31682
" />
<path d="M66781 31682
L66781 32517
" />
<path d="M76117 19406
L75282 19406
" />
<path d="M76117 19406
L76117 17020
" />
<path d="M76117 17020
L75282 17020
" />
<path d="M75282 19406
L75282 17020
" />
<path d="M75282 20217
L75282 19800
" />
<path d="M75700 20217
L75282 20217
" />
<path d="M55792 32000
L55792 32417
" />
<path d="M55792 32417
L55374 32417
" />
<path d="M54981 32417
L52595 32417
" />
<path d="M52595 31582
L52595 32417
" />
<path d="M54981 31582
L52595 31582
" />
<path d="M54981 31582
L54981 32417
" />
<path d="M60006 31582
L60006 32417
" />
<path d="M60006 31582
L57620 31582
" />
<path d="M57620 31582
L57620 32417
" />
<path d="M60006 32417
L57620 32417
" />
<path d="M60817 32417
L60400 32417
" />
<path d="M60817 32000
L60817 32417
" />
<circle cx="75000" cy="37000" r="900" /> 
</g>
<g style="fill:#000000; fill-opacity:0.0; 
stroke:#000000; stroke-width:59.0551; stroke-opacity:1; 
stroke-linecap:round; stroke-linejoin:round;">
<path d="M44475 16978
L44343 16790
" />
<path d="M44250 16978
L44250 16584
L44400 16584
L44437 16603
L44456 16621
L44475 16659
L44475 16715
L44456 16753
L44437 16771
L44400 16790
L44250 16790
" />
<path d="M44643 16771
L44775 16771
" />
<path d="M44831 16978
L44643 16978
L44643 16584
L44831 16584
" />
<path d="M45131 16771
L45000 16771
" />
<path d="M45000 16978
L45000 16584
L45187 16584
" />
<path d="M45393 16584
L45393 16678
" />
<path d="M45299 16640
L45393 16678
L45487 16640
" />
<path d="M45337 16753
L45393 16678
L45449 16753
" />
<path d="M45693 16584
L45693 16678
" />
<path d="M45599 16640
L45693 16678
L45787 16640
" />
<path d="M45637 16753
L45693 16678
L45749 16753
" />
<path d="M44475 35978
L44343 35790
" />
<path d="M44250 35978
L44250 35584
L44400 35584
L44437 35603
L44456 35621
L44475 35659
L44475 35715
L44456 35753
L44437 35771
L44400 35790
L44250 35790
" />
<path d="M44643 35771
L44775 35771
" />
<path d="M44831 35978
L44643 35978
L44643 35584
L44831 35584
" />
<path d="M45131 35771
L45000 35771
" />
<path d="M45000 35978
L45000 35584
L45187 35584
" />
<path d="M45393 35584
L45393 35678
" />
<path d="M45299 35640
L45393 35678
L45487 35640
" />
<path d="M45337 35753
L45393 35678
L45449 35753
" />
<path d="M45693 35584
L45693 35678
" />
<path d="M45599 35640
L45693 35678
L45787 35640
" />
<path d="M45637 35753
L45693 35678
L45749 35753
" />
<path d="M59649 25094
L59649 25375
L59630 25432
L59593 25469
L59536 25488
L59499 25488
" />
<path d="M60043 25488
L59818 25488
" />
<path d="M59930 25488
L59930 25094
L59893 25151
L59855 25188
L59818 25207
" />
<path d="M44568 27200
L44568 27481
L44550 27537
L44512 27575
L44456 27593
L44418 27593
" />
<path d="M44737 27237
L44756 27218
L44793 27200
L44887 27200
L44924 27218
L44943 27237
L44962 27275
L44962 27312
L44943 27368
L44718 27593
L44962 27593
" />
<path d="M74768 33268
L74768 33549
L74750 33606
L74712 33643
L74656 33662
L74618 33662
" />
<path d="M74918 33268
L75162 33268
L75031 33418
L75087 33418
L75124 33437
L75143 33456
L75162 33493
L75162 33587
L75143 33624
L75124 33643
L75087 33662
L74974 33662
L74937 33643
L74918 33624
" />
<path d="M67943 32231
L68224 32231
L68280 32249
L68318 32287
L68337 32343
L68337 32381
" />
<path d="M68074 31875
L68337 31875
" />
<path d="M67924 31968
L68205 32062
L68205 31818
" />
<path d="M75568 20568
L75568 20849
L75550 20906
L75512 20943
L75456 20962
L75418 20962
" />
<path d="M75943 20568
L75756 20568
L75737 20756
L75756 20737
L75793 20718
L75887 20718
L75924 20737
L75943 20756
L75962 20793
L75962 20887
L75943 20924
L75924 20943
L75887 20962
L75793 20962
L75756 20943
L75737 20924
" />
<path d="M56143 32131
L56424 32131
L56480 32149
L56518 32187
L56537 32243
L56537 32281
" />
<path d="M56143 31775
L56143 31850
L56162 31887
L56180 31906
L56237 31943
L56312 31962
L56462 31962
L56499 31943
L56518 31925
L56537 31887
L56537 31812
L56518 31775
L56499 31756
L56462 31737
L56368 31737
L56330 31756
L56312 31775
L56293 31812
L56293 31887
L56312 31925
L56330 31943
L56368 31962
" />
<path d="M61168 32131
L61449 32131
L61506 32149
L61543 32187
L61562 32243
L61562 32281
" />
<path d="M61168 31981
L61168 31718
L61562 31887
" />
<path d="M74475 35978
L74343 35790
" />
<path d="M74250 35978
L74250 35584
L74400 35584
L74437 35603
L74456 35621
L74475 35659
L74475 35715
L74456 35753
L74437 35771
L74400 35790
L74250 35790
" />
<path d="M74643 35771
L74775 35771
" />
<path d="M74831 35978
L74643 35978
L74643 35584
L74831 35584
" />
<path d="M75131 35771
L75000 35771
" />
<path d="M75000 35978
L75000 35584
L75187 35584
" />
<path d="M75393 35584
L75393 35678
" />
<path d="M75299 35640
L75393 35678
L75487 35640
" />
<path d="M75337 35753
L75393 35678
L75449 35753
" />
<path d="M75693 35584
L75693 35678
" />
<path d="M75599 35640
L75693 35678
L75787 35640
" />
<path d="M75637 35753
L75693 35678
L75749 35753
" />
</g> 
</svg>
