<?xml version="1.0" standalone="no"?>
 <!DOCTYPE svg PUBLIC "-//W3C//DTD SVG 1.1//EN" 
 "http://www.w3.org/Graphics/SVG/1.1/DTD/svg11.dtd"> 
<svg xmlns="http://www.w3.org/2000/svg" version="1.1" 
    width="29.7002cm" height="21.0007cm" viewBox="0 0 116930 82680 ">
<title>SVG Picture created as Placa do elevador 2 - macho-B.Cu.svg date 2018/11/08 21:35:51 </title>
  <desc>Picture generated by PCBNEW </desc>
<g style="fill:#000000; fill-opacity:1;stroke:#000000; stroke-opacity:1;
stroke-linecap:round; stroke-linejoin:round; "
 transform="translate(0 0) scale(1 1)">
</g>
<g style="fill:#000000; fill-opacity:0.0; 
stroke:#000000; stroke-width:-0.000393701; stroke-opacity:1; 
stroke-linecap:round; stroke-linejoin:round;">
</g>
<g style="fill:#000000; fill-opacity:0.0; 
stroke:#000000; stroke-width:59.0551; stroke-opacity:1; 
stroke-linecap:round; stroke-linejoin:round;">
<path d="M39500 42100
L79900 42100
" />
<path d="M39500 14500
L39500 42100
" />
<path d="M79900 37300
L79900 42100
" />
<path d="M79900 14500
L79900 37300
" />
<path d="M39500 14500
L79900 14500
" />
</g>
<g style="fill:#000000; fill-opacity:1.0; 
stroke:#000000; stroke-width:0; stroke-opacity:1; 
stroke-linecap:round; stroke-linejoin:round;">
<circle cx="45000" cy="18000" r="800" /> 
</g>
<g style="fill:#000000; fill-opacity:1.0; 
stroke:#000000; stroke-width:39.3701; stroke-opacity:1; 
stroke-linecap:round; stroke-linejoin:round;">
</g>
<g style="fill:#000000; fill-opacity:1.0; 
stroke:#000000; stroke-width:0; stroke-opacity:1; 
stroke-linecap:round; stroke-linejoin:round;">
<circle cx="45000" cy="37000" r="800" /> 
</g>
<g style="fill:#000000; fill-opacity:1.0; 
stroke:#000000; stroke-width:39.3701; stroke-opacity:1; 
stroke-linecap:round; stroke-linejoin:round;">
</g>
<g style="fill:#000000; fill-opacity:1.0; 
stroke:#000000; stroke-width:0; stroke-opacity:1; 
stroke-linecap:round; stroke-linejoin:round;">
<circle cx="50509.1" cy="23649" r="787.402" /> 
</g>
<g style="fill:#000000; fill-opacity:1.0; 
stroke:#000000; stroke-width:39.3701; stroke-opacity:1; 
stroke-linecap:round; stroke-linejoin:round;">
</g>
<g style="fill:#000000; fill-opacity:1.0; 
stroke:#000000; stroke-width:0; stroke-opacity:1; 
stroke-linecap:round; stroke-linejoin:round;">
<circle cx="69052.4" cy="23649" r="787.402" /> 
</g>
<g style="fill:#000000; fill-opacity:1.0; 
stroke:#000000; stroke-width:39.3701; stroke-opacity:1; 
stroke-linecap:round; stroke-linejoin:round;">
</g>
<g style="fill:#000000; fill-opacity:1.0; 
stroke:#000000; stroke-width:0; stroke-opacity:1; 
stroke-linecap:round; stroke-linejoin:round;">
<circle cx="53782.7" cy="23089.9" r="314.961" /> 
</g>
<g style="fill:#000000; fill-opacity:1.0; 
stroke:#000000; stroke-width:39.3701; stroke-opacity:1; 
stroke-linecap:round; stroke-linejoin:round;">
</g>
<g style="fill:#000000; fill-opacity:1.0; 
stroke:#000000; stroke-width:0; stroke-opacity:1; 
stroke-linecap:round; stroke-linejoin:round;">
<circle cx="54873.2" cy="23089.9" r="314.961" /> 
</g>
<g style="fill:#000000; fill-opacity:1.0; 
stroke:#000000; stroke-width:39.3701; stroke-opacity:1; 
stroke-linecap:round; stroke-linejoin:round;">
</g>
<g style="fill:#000000; fill-opacity:1.0; 
stroke:#000000; stroke-width:0; stroke-opacity:1; 
stroke-linecap:round; stroke-linejoin:round;">
<circle cx="55963.8" cy="23089.9" r="314.961" /> 
</g>
<g style="fill:#000000; fill-opacity:1.0; 
stroke:#000000; stroke-width:39.3701; stroke-opacity:1; 
stroke-linecap:round; stroke-linejoin:round;">
</g>
<g style="fill:#000000; fill-opacity:1.0; 
stroke:#000000; stroke-width:0; stroke-opacity:1; 
stroke-linecap:round; stroke-linejoin:round;">
<circle cx="57054.3" cy="23089.9" r="314.961" /> 
</g>
<g style="fill:#000000; fill-opacity:1.0; 
stroke:#000000; stroke-width:39.3701; stroke-opacity:1; 
stroke-linecap:round; stroke-linejoin:round;">
</g>
<g style="fill:#000000; fill-opacity:1.0; 
stroke:#000000; stroke-width:0; stroke-opacity:1; 
stroke-linecap:round; stroke-linejoin:round;">
<circle cx="58144.9" cy="23089.9" r="314.961" /> 
</g>
<g style="fill:#000000; fill-opacity:1.0; 
stroke:#000000; stroke-width:39.3701; stroke-opacity:1; 
stroke-linecap:round; stroke-linejoin:round;">
</g>
<g style="fill:#000000; fill-opacity:1.0; 
stroke:#000000; stroke-width:0; stroke-opacity:1; 
stroke-linecap:round; stroke-linejoin:round;">
<circle cx="59235.4" cy="23089.9" r="314.961" /> 
</g>
<g style="fill:#000000; fill-opacity:1.0; 
stroke:#000000; stroke-width:39.3701; stroke-opacity:1; 
stroke-linecap:round; stroke-linejoin:round;">
</g>
<g style="fill:#000000; fill-opacity:1.0; 
stroke:#000000; stroke-width:0; stroke-opacity:1; 
stroke-linecap:round; stroke-linejoin:round;">
<circle cx="60326" cy="23089.9" r="314.961" /> 
</g>
<g style="fill:#000000; fill-opacity:1.0; 
stroke:#000000; stroke-width:39.3701; stroke-opacity:1; 
stroke-linecap:round; stroke-linejoin:round;">
</g>
<g style="fill:#000000; fill-opacity:1.0; 
stroke:#000000; stroke-width:0; stroke-opacity:1; 
stroke-linecap:round; stroke-linejoin:round;">
<circle cx="61416.5" cy="23089.9" r="314.961" /> 
</g>
<g style="fill:#000000; fill-opacity:1.0; 
stroke:#000000; stroke-width:39.3701; stroke-opacity:1; 
stroke-linecap:round; stroke-linejoin:round;">
</g>
<g style="fill:#000000; fill-opacity:1.0; 
stroke:#000000; stroke-width:0; stroke-opacity:1; 
stroke-linecap:round; stroke-linejoin:round;">
<circle cx="62507.1" cy="23089.9" r="314.961" /> 
</g>
<g style="fill:#000000; fill-opacity:1.0; 
stroke:#000000; stroke-width:39.3701; stroke-opacity:1; 
stroke-linecap:round; stroke-linejoin:round;">
</g>
<g style="fill:#000000; fill-opacity:1.0; 
stroke:#000000; stroke-width:0; stroke-opacity:1; 
stroke-linecap:round; stroke-linejoin:round;">
<circle cx="63597.6" cy="23089.9" r="314.961" /> 
</g>
<g style="fill:#000000; fill-opacity:1.0; 
stroke:#000000; stroke-width:39.3701; stroke-opacity:1; 
stroke-linecap:round; stroke-linejoin:round;">
</g>
<g style="fill:#000000; fill-opacity:1.0; 
stroke:#000000; stroke-width:0; stroke-opacity:1; 
stroke-linecap:round; stroke-linejoin:round;">
<circle cx="64688.2" cy="23089.9" r="314.961" /> 
</g>
<g style="fill:#000000; fill-opacity:1.0; 
stroke:#000000; stroke-width:39.3701; stroke-opacity:1; 
stroke-linecap:round; stroke-linejoin:round;">
</g>
<g style="fill:#000000; fill-opacity:1.0; 
stroke:#000000; stroke-width:0; stroke-opacity:1; 
stroke-linecap:round; stroke-linejoin:round;">
<circle cx="65778.7" cy="23089.9" r="314.961" /> 
</g>
<g style="fill:#000000; fill-opacity:1.0; 
stroke:#000000; stroke-width:39.3701; stroke-opacity:1; 
stroke-linecap:round; stroke-linejoin:round;">
</g>
<g style="fill:#000000; fill-opacity:1.0; 
stroke:#000000; stroke-width:0; stroke-opacity:1; 
stroke-linecap:round; stroke-linejoin:round;">
<circle cx="53237.4" cy="24208" r="314.961" /> 
</g>
<g style="fill:#000000; fill-opacity:1.0; 
stroke:#000000; stroke-width:39.3701; stroke-opacity:1; 
stroke-linecap:round; stroke-linejoin:round;">
</g>
<g style="fill:#000000; fill-opacity:1.0; 
stroke:#000000; stroke-width:0; stroke-opacity:1; 
stroke-linecap:round; stroke-linejoin:round;">
<circle cx="54328" cy="24208" r="314.961" /> 
</g>
<g style="fill:#000000; fill-opacity:1.0; 
stroke:#000000; stroke-width:39.3701; stroke-opacity:1; 
stroke-linecap:round; stroke-linejoin:round;">
</g>
<g style="fill:#000000; fill-opacity:1.0; 
stroke:#000000; stroke-width:0; stroke-opacity:1; 
stroke-linecap:round; stroke-linejoin:round;">
<circle cx="55418.5" cy="24208" r="314.961" /> 
</g>
<g style="fill:#000000; fill-opacity:1.0; 
stroke:#000000; stroke-width:39.3701; stroke-opacity:1; 
stroke-linecap:round; stroke-linejoin:round;">
</g>
<g style="fill:#000000; fill-opacity:1.0; 
stroke:#000000; stroke-width:0; stroke-opacity:1; 
stroke-linecap:round; stroke-linejoin:round;">
<circle cx="56509.1" cy="24208" r="314.961" /> 
</g>
<g style="fill:#000000; fill-opacity:1.0; 
stroke:#000000; stroke-width:39.3701; stroke-opacity:1; 
stroke-linecap:round; stroke-linejoin:round;">
</g>
<g style="fill:#000000; fill-opacity:1.0; 
stroke:#000000; stroke-width:0; stroke-opacity:1; 
stroke-linecap:round; stroke-linejoin:round;">
<circle cx="57599.6" cy="24208" r="314.961" /> 
</g>
<g style="fill:#000000; fill-opacity:1.0; 
stroke:#000000; stroke-width:39.3701; stroke-opacity:1; 
stroke-linecap:round; stroke-linejoin:round;">
</g>
<g style="fill:#000000; fill-opacity:1.0; 
stroke:#000000; stroke-width:0; stroke-opacity:1; 
stroke-linecap:round; stroke-linejoin:round;">
<circle cx="58690.2" cy="24208" r="314.961" /> 
</g>
<g style="fill:#000000; fill-opacity:1.0; 
stroke:#000000; stroke-width:39.3701; stroke-opacity:1; 
stroke-linecap:round; stroke-linejoin:round;">
</g>
<g style="fill:#000000; fill-opacity:1.0; 
stroke:#000000; stroke-width:0; stroke-opacity:1; 
stroke-linecap:round; stroke-linejoin:round;">
<circle cx="59780.7" cy="24208" r="314.961" /> 
</g>
<g style="fill:#000000; fill-opacity:1.0; 
stroke:#000000; stroke-width:39.3701; stroke-opacity:1; 
stroke-linecap:round; stroke-linejoin:round;">
</g>
<g style="fill:#000000; fill-opacity:1.0; 
stroke:#000000; stroke-width:0; stroke-opacity:1; 
stroke-linecap:round; stroke-linejoin:round;">
<circle cx="60871.3" cy="24208" r="314.961" /> 
</g>
<g style="fill:#000000; fill-opacity:1.0; 
stroke:#000000; stroke-width:39.3701; stroke-opacity:1; 
stroke-linecap:round; stroke-linejoin:round;">
</g>
<g style="fill:#000000; fill-opacity:1.0; 
stroke:#000000; stroke-width:0; stroke-opacity:1; 
stroke-linecap:round; stroke-linejoin:round;">
<circle cx="61961.8" cy="24208" r="314.961" /> 
</g>
<g style="fill:#000000; fill-opacity:1.0; 
stroke:#000000; stroke-width:39.3701; stroke-opacity:1; 
stroke-linecap:round; stroke-linejoin:round;">
</g>
<g style="fill:#000000; fill-opacity:1.0; 
stroke:#000000; stroke-width:0; stroke-opacity:1; 
stroke-linecap:round; stroke-linejoin:round;">
<circle cx="63052.4" cy="24208" r="314.961" /> 
</g>
<g style="fill:#000000; fill-opacity:1.0; 
stroke:#000000; stroke-width:39.3701; stroke-opacity:1; 
stroke-linecap:round; stroke-linejoin:round;">
</g>
<g style="fill:#000000; fill-opacity:1.0; 
stroke:#000000; stroke-width:0; stroke-opacity:1; 
stroke-linecap:round; stroke-linejoin:round;">
<circle cx="64142.9" cy="24208" r="314.961" /> 
</g>
<g style="fill:#000000; fill-opacity:1.0; 
stroke:#000000; stroke-width:39.3701; stroke-opacity:1; 
stroke-linecap:round; stroke-linejoin:round;">
</g>
<g style="fill:#000000; fill-opacity:1.0; 
stroke:#000000; stroke-width:0; stroke-opacity:1; 
stroke-linecap:round; stroke-linejoin:round;">
<circle cx="65233.5" cy="24208" r="314.961" /> 
</g>
<g style="fill:#000000; fill-opacity:1.0; 
stroke:#000000; stroke-width:39.3701; stroke-opacity:1; 
stroke-linecap:round; stroke-linejoin:round;">
</g>
<g style="fill:#000000; fill-opacity:1.0; 
stroke:#000000; stroke-width:0; stroke-opacity:1; 
stroke-linecap:round; stroke-linejoin:round;">
<polyline style="fill-rule:evenodd;"
points="66638,23893
66638,24522
66009,24522
66009,23893
66638,23893
" /> 
</g>
<g style="fill:#000000; fill-opacity:1.0; 
stroke:#000000; stroke-width:531.496; stroke-opacity:1; 
stroke-linecap:round; stroke-linejoin:round;">
</g>
<g style="fill:#000000; fill-opacity:0.0; 
stroke:#000000; stroke-width:531.496; stroke-opacity:1; 
stroke-linecap:round; stroke-linejoin:round;">
<path d="M44700 30762
L44700 30762
" />
<path d="M44700 29974
L44700 29974
" />
<path d="M44700 29187
L44700 29187
" />
</g>
<g style="fill:#000000; fill-opacity:0.0; 
stroke:#000000; stroke-width:0; stroke-opacity:1; 
stroke-linecap:round; stroke-linejoin:round;">
</g>
<g style="fill:#000000; fill-opacity:1.0; 
stroke:#000000; stroke-width:0; stroke-opacity:1; 
stroke-linecap:round; stroke-linejoin:round;">
<polyline style="fill-rule:evenodd;"
points="44434,28665
44434,28134
44965,28134
44965,28665
44434,28665
" /> 
<polyline style="fill-rule:evenodd;"
points="75165,32234
75165,32765
74634,32765
74634,32234
75165,32234
" /> 
</g>
<g style="fill:#000000; fill-opacity:1.0; 
stroke:#000000; stroke-width:531.496; stroke-opacity:1; 
stroke-linecap:round; stroke-linejoin:round;">
</g>
<g style="fill:#000000; fill-opacity:0.0; 
stroke:#000000; stroke-width:531.496; stroke-opacity:1; 
stroke-linecap:round; stroke-linejoin:round;">
<path d="M74900 31712
L74900 31712
" />
<path d="M74900 30925
L74900 30925
" />
<path d="M74900 30137
L74900 30137
" />
<path d="M64812 32100
L64812 32100
" />
<path d="M65600 32100
L65600 32100
" />
<path d="M66387 32100
L66387 32100
" />
</g>
<g style="fill:#000000; fill-opacity:0.0; 
stroke:#000000; stroke-width:0; stroke-opacity:1; 
stroke-linecap:round; stroke-linejoin:round;">
</g>
<g style="fill:#000000; fill-opacity:1.0; 
stroke:#000000; stroke-width:0; stroke-opacity:1; 
stroke-linecap:round; stroke-linejoin:round;">
<polyline style="fill-rule:evenodd;"
points="66909,31834
67440,31834
67440,32365
66909,32365
66909,31834
" /> 
<polyline style="fill-rule:evenodd;"
points="75965,19534
75965,20065
75434,20065
75434,19534
75965,19534
" /> 
</g>
<g style="fill:#000000; fill-opacity:1.0; 
stroke:#000000; stroke-width:531.496; stroke-opacity:1; 
stroke-linecap:round; stroke-linejoin:round;">
</g>
<g style="fill:#000000; fill-opacity:0.0; 
stroke:#000000; stroke-width:531.496; stroke-opacity:1; 
stroke-linecap:round; stroke-linejoin:round;">
<path d="M75700 19012
L75700 19012
" />
<path d="M75700 18225
L75700 18225
" />
<path d="M75700 17437
L75700 17437
" />
<path d="M53012 32000
L53012 32000
" />
<path d="M53800 32000
L53800 32000
" />
<path d="M54587 32000
L54587 32000
" />
</g>
<g style="fill:#000000; fill-opacity:0.0; 
stroke:#000000; stroke-width:0; stroke-opacity:1; 
stroke-linecap:round; stroke-linejoin:round;">
</g>
<g style="fill:#000000; fill-opacity:1.0; 
stroke:#000000; stroke-width:0; stroke-opacity:1; 
stroke-linecap:round; stroke-linejoin:round;">
<polyline style="fill-rule:evenodd;"
points="55109,31734
55640,31734
55640,32265
55109,32265
55109,31734
" /> 
<polyline style="fill-rule:evenodd;"
points="60134,31734
60665,31734
60665,32265
60134,32265
60134,31734
" /> 
</g>
<g style="fill:#000000; fill-opacity:1.0; 
stroke:#000000; stroke-width:531.496; stroke-opacity:1; 
stroke-linecap:round; stroke-linejoin:round;">
</g>
<g style="fill:#000000; fill-opacity:0.0; 
stroke:#000000; stroke-width:531.496; stroke-opacity:1; 
stroke-linecap:round; stroke-linejoin:round;">
<path d="M59612 32000
L59612 32000
" />
<path d="M58825 32000
L58825 32000
" />
<path d="M58037 32000
L58037 32000
" />
</g>
<g style="fill:#000000; fill-opacity:1.0; 
stroke:#000000; stroke-width:0; stroke-opacity:1; 
stroke-linecap:round; stroke-linejoin:round;">
<circle cx="75000" cy="37000" r="800" /> 
</g>
<g style="fill:#000000; fill-opacity:1.0; 
stroke:#000000; stroke-width:39.3701; stroke-opacity:1; 
stroke-linecap:round; stroke-linejoin:round;">
</g>
<g style="fill:#000000; fill-opacity:1.0; 
stroke:#000000; stroke-width:196.85; stroke-opacity:1; 
stroke-linecap:round; stroke-linejoin:round;">
</g>
<g style="fill:#000000; fill-opacity:0.0; 
stroke:#000000; stroke-width:196.85; stroke-opacity:1; 
stroke-linecap:round; stroke-linejoin:round;">
<path d="M67174 31637
L67200 31612
" />
<path d="M67174 32100
L67174 31637
" />
<path d="M67200 31612
L67200 31000
" />
<path d="M67200 31000
L65200 29000
" />
<path d="M65233 28966
L65233 24208
" />
<path d="M65200 29000
L65233 28966
" />
<path d="M64142 29042
L64142 24208
" />
<path d="M66387 31287
L64142 29042
" />
<path d="M66387 32100
L66387 31287
" />
<path d="M63052 29176
L63052 24208
" />
<path d="M65600 31724
L63052 29176
" />
<path d="M65600 32100
L65600 31724
" />
<path d="M60400 32000
L60400 31537
" />
<path d="M59780 30918
L59780 24208
" />
<path d="M60400 31537
L59780 30918
" />
<path d="M59612 32000
L59612 31512
" />
<path d="M58690 30590
L58690 24208
" />
<path d="M59612 31512
L58690 30590
" />
<path d="M58825 32000
L57625 30800
" />
<path d="M57625 30800
L57625 24525
" />
<path d="M57599 24499
L57599 24208
" />
<path d="M57625 24525
L57599 24499
" />
<path d="M55374 25342
L56509 24208
" />
<path d="M55374 32000
L55374 25342
" />
<path d="M55103 24522
L55418 24208
" />
<path d="M54587 25039
L55103 24522
" />
<path d="M54587 32000
L54587 25039
" />
<path d="M53800 24735
L54327 24208
" />
<path d="M53800 32000
L53800 24735
" />
<path d="M53237 31775
L53012 32000
" />
<path d="M53237 24208
L53237 31775
" />
<path d="M65778 23089
L66489 23089
" />
<path d="M66489 23089
L69800 26400
" />
<path d="M74437 32500
L74900 32500
" />
<path d="M69800 27862
L74437 32500
" />
<path d="M69800 26400
L69800 27862
" />
<path d="M72800 29612
L72800 22800
" />
<path d="M74900 31712
L72800 29612
" />
<path d="M72800 22800
L71300 21300
" />
<path d="M66478 21300
L64688 23089
" />
<path d="M71300 21300
L66478 21300
" />
<path d="M74900 30925
L75574 30925
" />
<path d="M66187 20500
L63597 23089
" />
<path d="M72500 20500
L66187 20500
" />
<path d="M76000 24000
L72500 20500
" />
<path d="M76000 30500
L76000 24000
" />
<path d="M75574 30925
L76000 30500
" />
<path d="M61416 23089
L61731 22774
" />
<path d="M64700 19800
L75700 19800
" />
<path d="M61731 22768
L64700 19800
" />
<path d="M61731 22774
L61731 22768
" />
<path d="M60325 23089
L60640 22774
" />
<path d="M64387 19012
L75700 19012
" />
<path d="M60640 22759
L64387 19012
" />
<path d="M60640 22774
L60640 22759
" />
<path d="M75700 18225
L75324 18225
" />
<path d="M64025 18300
L59235 23089
" />
<path d="M75249 18300
L64025 18300
" />
<path d="M75324 18225
L75249 18300
" />
<path d="M58144 21944
L58144 23089
" />
<path d="M44700 22400
L46800 20300
" />
<path d="M56500 20300
L58144 21944
" />
<path d="M44700 28400
L44700 22400
" />
<path d="M46800 20300
L56500 20300
" />
<path d="M57054 22154
L57054 23089
" />
<path d="M55800 20900
L57054 22154
" />
<path d="M47200 20900
L55800 20900
" />
<path d="M44700 29187
L45075 29187
" />
<path d="M46100 28163
L46100 22000
" />
<path d="M45075 29187
L46100 28163
" />
<path d="M46100 22000
L47200 20900
" />
<path d="M55963 22644
L55119 21800
" />
<path d="M55963 23089
L55963 22644
" />
<path d="M55119 21800
L53100 21800
" />
<path d="M53100 21800
L50300 21800
" />
<path d="M50300 21800
L48400 21800
" />
<path d="M48400 21800
L47100 23100
" />
<path d="M47100 26000
L47100 28600
" />
<path d="M47100 23100
L47100 26000
" />
<path d="M47100 26000
L47100 26100
" />
<path d="M47100 28600
L47000 28600
" />
<path d="M47000 28600
L45625 29974
" />
<path d="M45625 29974
L44700 29974
" />
<path d="M53337 23089
L53327 23100
" />
<path d="M53782 23089
L53337 23089
" />
<path d="M53327 23100
L53100 23100
" />
<path d="M53100 23100
L52400 23800
" />
<path d="M52400 23800
L52400 27900
" />
<path d="M49537 30762
L44700 30762
" />
<path d="M52400 27900
L49537 30762
" />
</g>
<g style="fill:#000000; fill-opacity:1.0; 
stroke:#000000; stroke-width:100; stroke-opacity:1; 
stroke-linecap:round; stroke-linejoin:round;">
<polyline style="fill-rule:evenodd;"
points="59005,39320
55168,39320
55168,35483
59005,35483
59005,39320
" /> 
</g> 
</svg>
