<?xml version="1.0" standalone="no"?>
 <!DOCTYPE svg PUBLIC "-//W3C//DTD SVG 1.1//EN" 
 "http://www.w3.org/Graphics/SVG/1.1/DTD/svg11.dtd"> 
<svg xmlns="http://www.w3.org/2000/svg" version="1.1" 
    width="29.7002cm" height="21.0007cm" viewBox="0 0 116930 82680 ">
<title>SVG Picture created as Placa do elevador 2 - macho-B.SilkS.svg date 2018/11/08 21:35:51 </title>
  <desc>Picture generated by PCBNEW </desc>
<g style="fill:#000000; fill-opacity:1;stroke:#000000; stroke-opacity:1;
stroke-linecap:round; stroke-linejoin:round; "
 transform="translate(0 0) scale(1 1)">
</g>
<g style="fill:#000000; fill-opacity:0.0; 
stroke:#000000; stroke-width:-0.000393701; stroke-opacity:1; 
stroke-linecap:round; stroke-linejoin:round;">
</g>
<g style="fill:#000000; fill-opacity:0.0; 
stroke:#000000; stroke-width:118.11; stroke-opacity:1; 
stroke-linecap:round; stroke-linejoin:round;">
<path d="M84350 25825
L84350 26219
L83759 25965
" />
<path d="M84350 26556
L84350 26612
L84322 26668
L84293 26697
L84237 26725
L84125 26753
L83984 26753
L83872 26725
L83815 26697
L83787 26668
L83759 26612
L83759 26556
L83787 26500
L83815 26472
L83872 26443
L83984 26415
L84125 26415
L84237 26443
L84293 26472
L84322 26500
L84350 26556
" />
<path d="M83815 27006
L83787 27034
L83759 27006
L83787 26978
L83815 27006
L83759 27006
" />
<path d="M83759 27596
L83759 27259
" />
<path d="M83759 27428
L84350 27428
L84265 27371
L84209 27315
L84181 27259
" />
<path d="M84350 27962
L84350 28018
L84322 28075
L84293 28103
L84237 28131
L84125 28159
L83984 28159
L83872 28131
L83815 28103
L83787 28075
L83759 28018
L83759 27962
L83787 27906
L83815 27878
L83872 27850
L83984 27821
L84125 27821
L84237 27850
L84293 27878
L84322 27906
L84350 27962
" />
<path d="M84153 28665
L83759 28665
" />
<path d="M84378 28524
L83956 28384
L83956 28749
" />
<path d="M83759 29424
L84153 29424
" />
<path d="M84097 29424
L84125 29452
L84153 29509
L84153 29593
L84125 29649
L84068 29677
L83759 29677
" />
<path d="M84068 29677
L84125 29706
L84153 29762
L84153 29846
L84125 29902
L84068 29931
L83759 29931
" />
<path d="M83759 30212
L84153 30212
" />
<path d="M84097 30212
L84125 30240
L84153 30296
L84153 30380
L84125 30437
L84068 30465
L83759 30465
" />
<path d="M84068 30465
L84125 30493
L84153 30549
L84153 30634
L84125 30690
L84068 30718
L83759 30718
" />
<path d="M83200 14500
L83200 42100
" />
<path d="M79900 14500
L83430 14500
" />
<path d="M79900 42100
L83430 42100
" />
<path d="M83200 42100
L82969 41656
" />
<path d="M83200 42100
L83430 41656
" />
<path d="M83200 14500
L82969 14943
" />
<path d="M83200 14500
L83430 14943
" />
<path d="M57309 47693
L56972 47693
" />
<path d="M57140 47693
L57140 47103
L57084 47187
L57028 47243
L56972 47272
" />
<path d="M57675 47103
L57731 47103
L57787 47131
L57815 47159
L57843 47215
L57872 47328
L57872 47468
L57843 47581
L57815 47637
L57787 47665
L57731 47693
L57675 47693
L57619 47665
L57590 47637
L57562 47581
L57534 47468
L57534 47328
L57562 47215
L57590 47159
L57619 47131
L57675 47103
" />
<path d="M58097 47159
L58125 47131
L58181 47103
L58322 47103
L58378 47131
L58406 47159
L58434 47215
L58434 47272
L58406 47356
L58068 47693
L58434 47693
" />
<path d="M58687 47637
L58715 47665
L58687 47693
L58659 47665
L58687 47637
L58687 47693
" />
<path d="M59221 47103
L59109 47103
L59053 47131
L59025 47159
L58968 47243
L58940 47356
L58940 47581
L58968 47637
L58996 47665
L59053 47693
L59165 47693
L59221 47665
L59250 47637
L59278 47581
L59278 47440
L59250 47384
L59221 47356
L59165 47328
L59053 47328
L58996 47356
L58968 47384
L58940 47440
" />
<path d="M59840 47693
L59503 47693
" />
<path d="M59671 47693
L59671 47103
L59615 47187
L59559 47243
L59503 47272
" />
<path d="M60346 47103
L60234 47103
L60178 47131
L60149 47159
L60093 47243
L60065 47356
L60065 47581
L60093 47637
L60121 47665
L60178 47693
L60290 47693
L60346 47665
L60374 47637
L60403 47581
L60403 47440
L60374 47384
L60346 47356
L60290 47328
L60178 47328
L60121 47356
L60093 47384
L60065 47440
" />
<path d="M61106 47693
L61106 47300
" />
<path d="M61106 47356
L61134 47328
L61190 47300
L61274 47300
L61331 47328
L61359 47384
L61359 47693
" />
<path d="M61359 47384
L61387 47328
L61443 47300
L61527 47300
L61584 47328
L61612 47384
L61612 47693
" />
<path d="M61893 47693
L61893 47300
" />
<path d="M61893 47356
L61921 47328
L61977 47300
L62062 47300
L62118 47328
L62146 47384
L62146 47693
" />
<path d="M62146 47384
L62174 47328
L62230 47300
L62315 47300
L62371 47328
L62399 47384
L62399 47693
" />
<path d="M39500 46600
L79900 46600
" />
<path d="M39500 42100
L39500 46830
" />
<path d="M79900 42100
L79900 46830
" />
<path d="M79900 46600
L79456 46830
" />
<path d="M79900 46600
L79456 46369
" />
<path d="M39500 46600
L39943 46830
" />
<path d="M39500 46600
L39943 46369
" />
</g>
<g style="fill:#000000; fill-opacity:0.0; 
stroke:#000000; stroke-width:59.0551; stroke-opacity:1; 
stroke-linecap:round; stroke-linejoin:round;">
<path d="M39500 42100
L79900 42100
" />
<path d="M39500 14500
L39500 42100
" />
<path d="M79900 37300
L79900 42100
" />
<path d="M79900 14500
L79900 37300
" />
<path d="M39500 14500
L79900 14500
" />
</g> 
</svg>
