G04 #@! TF.GenerationSoftware,KiCad,Pcbnew,5.0.1-33cea8e~68~ubuntu16.04.1*
G04 #@! TF.CreationDate,2018-11-08T21:42:09-02:00*
G04 #@! TF.ProjectId,Placa do elevador 2 - macho,506C61636120646F20656C657661646F,rev?*
G04 #@! TF.SameCoordinates,Original*
G04 #@! TF.FileFunction,Soldermask,Top*
G04 #@! TF.FilePolarity,Negative*
%FSLAX46Y46*%
G04 Gerber Fmt 4.6, Leading zero omitted, Abs format (unit mm)*
G04 Created by KiCad (PCBNEW 5.0.1-33cea8e~68~ubuntu16.04.1) date Qui 08 Nov 2018 21:42:09 -02*
%MOMM*%
%LPD*%
G01*
G04 APERTURE LIST*
%ADD10C,0.150000*%
%ADD11C,0.100000*%
G04 APERTURE END LIST*
D10*
X100330000Y-106934000D02*
X202946000Y-106934000D01*
X100330000Y-36830000D02*
X100330000Y-106934000D01*
X202946000Y-94742000D02*
X202946000Y-106934000D01*
X202946000Y-36830000D02*
X202946000Y-94742000D01*
X100330000Y-36830000D02*
X202946000Y-36830000D01*
D11*
G36*
X191151050Y-91833774D02*
X191557249Y-92002027D01*
X191917953Y-92243042D01*
X191922820Y-92246294D01*
X192233706Y-92557180D01*
X192477974Y-92922753D01*
X192646226Y-93328950D01*
X192732000Y-93760166D01*
X192732000Y-94199834D01*
X192646226Y-94631050D01*
X192477974Y-95037247D01*
X192233706Y-95402820D01*
X191922820Y-95713706D01*
X191922817Y-95713708D01*
X191557249Y-95957973D01*
X191557248Y-95957974D01*
X191557247Y-95957974D01*
X191151050Y-96126226D01*
X190719834Y-96212000D01*
X190280166Y-96212000D01*
X189848950Y-96126226D01*
X189442753Y-95957974D01*
X189442752Y-95957974D01*
X189442751Y-95957973D01*
X189077183Y-95713708D01*
X189077180Y-95713706D01*
X188766294Y-95402820D01*
X188522026Y-95037247D01*
X188353774Y-94631050D01*
X188268000Y-94199834D01*
X188268000Y-93760166D01*
X188353774Y-93328950D01*
X188522026Y-92922753D01*
X188766294Y-92557180D01*
X189077180Y-92246294D01*
X189082047Y-92243042D01*
X189442751Y-92002027D01*
X189848950Y-91833774D01*
X190280166Y-91748000D01*
X190719834Y-91748000D01*
X191151050Y-91833774D01*
X191151050Y-91833774D01*
G37*
G36*
X114951050Y-91833774D02*
X115357249Y-92002027D01*
X115717953Y-92243042D01*
X115722820Y-92246294D01*
X116033706Y-92557180D01*
X116277974Y-92922753D01*
X116446226Y-93328950D01*
X116532000Y-93760166D01*
X116532000Y-94199834D01*
X116446226Y-94631050D01*
X116277974Y-95037247D01*
X116033706Y-95402820D01*
X115722820Y-95713706D01*
X115722817Y-95713708D01*
X115357249Y-95957973D01*
X115357248Y-95957974D01*
X115357247Y-95957974D01*
X114951050Y-96126226D01*
X114519834Y-96212000D01*
X114080166Y-96212000D01*
X113648950Y-96126226D01*
X113242753Y-95957974D01*
X113242752Y-95957974D01*
X113242751Y-95957973D01*
X112877183Y-95713708D01*
X112877180Y-95713706D01*
X112566294Y-95402820D01*
X112322026Y-95037247D01*
X112153774Y-94631050D01*
X112068000Y-94199834D01*
X112068000Y-93760166D01*
X112153774Y-93328950D01*
X112322026Y-92922753D01*
X112566294Y-92557180D01*
X112877180Y-92246294D01*
X112882047Y-92243042D01*
X113242751Y-92002027D01*
X113648950Y-91833774D01*
X114080166Y-91748000D01*
X114519834Y-91748000D01*
X114951050Y-91833774D01*
X114951050Y-91833774D01*
G37*
G36*
X190258835Y-81669618D02*
X190295120Y-81675000D01*
X191121000Y-81675000D01*
X191121000Y-83425000D01*
X189371000Y-83425000D01*
X189371000Y-81675000D01*
X190196880Y-81675000D01*
X190221266Y-81672598D01*
X190244715Y-81665485D01*
X190246524Y-81664518D01*
X190258835Y-81669618D01*
X190258835Y-81669618D01*
G37*
G36*
X164709829Y-80663220D02*
X164795530Y-80671661D01*
X164905489Y-80705017D01*
X164960469Y-80721695D01*
X165011137Y-80748778D01*
X165112476Y-80802944D01*
X165245712Y-80912288D01*
X165355056Y-81045524D01*
X165388701Y-81108470D01*
X165436305Y-81197531D01*
X165436305Y-81197532D01*
X165486339Y-81362470D01*
X165486339Y-81362472D01*
X165499602Y-81497132D01*
X165504383Y-81521166D01*
X165509699Y-81534000D01*
X165504382Y-81546835D01*
X165499602Y-81570868D01*
X165486339Y-81705530D01*
X165467245Y-81768474D01*
X165436305Y-81870469D01*
X165419605Y-81901712D01*
X165355056Y-82022476D01*
X165245712Y-82155712D01*
X165112476Y-82265056D01*
X165011137Y-82319222D01*
X164960469Y-82346305D01*
X164905489Y-82362983D01*
X164795530Y-82396339D01*
X164709829Y-82404780D01*
X164666980Y-82409000D01*
X164581020Y-82409000D01*
X164538171Y-82404780D01*
X164452470Y-82396339D01*
X164342511Y-82362983D01*
X164287531Y-82346305D01*
X164236863Y-82319222D01*
X164135524Y-82265056D01*
X164002288Y-82155712D01*
X163892944Y-82022476D01*
X163828395Y-81901712D01*
X163811695Y-81870469D01*
X163780755Y-81768474D01*
X163761661Y-81705530D01*
X163744767Y-81534000D01*
X163761661Y-81362470D01*
X163811695Y-81197532D01*
X163811695Y-81197531D01*
X163859299Y-81108470D01*
X163892944Y-81045524D01*
X164002288Y-80912288D01*
X164135524Y-80802944D01*
X164236863Y-80748778D01*
X164287531Y-80721695D01*
X164342511Y-80705017D01*
X164452470Y-80671661D01*
X164538171Y-80663220D01*
X164581020Y-80659000D01*
X164666980Y-80659000D01*
X164709829Y-80663220D01*
X164709829Y-80663220D01*
G37*
G36*
X171499000Y-82409000D02*
X169749000Y-82409000D01*
X169749000Y-81583120D01*
X169746598Y-81558734D01*
X169739485Y-81535285D01*
X169738518Y-81533476D01*
X169743618Y-81521165D01*
X169749000Y-81484880D01*
X169749000Y-80659000D01*
X171499000Y-80659000D01*
X171499000Y-82409000D01*
X171499000Y-82409000D01*
G37*
G36*
X166709829Y-80663220D02*
X166795530Y-80671661D01*
X166905489Y-80705017D01*
X166960469Y-80721695D01*
X167011137Y-80748778D01*
X167112476Y-80802944D01*
X167245712Y-80912288D01*
X167355056Y-81045524D01*
X167388701Y-81108470D01*
X167436305Y-81197531D01*
X167436305Y-81197532D01*
X167486339Y-81362470D01*
X167486339Y-81362472D01*
X167499602Y-81497132D01*
X167504383Y-81521166D01*
X167509699Y-81534000D01*
X167504382Y-81546835D01*
X167499602Y-81570868D01*
X167486339Y-81705530D01*
X167467245Y-81768474D01*
X167436305Y-81870469D01*
X167419605Y-81901712D01*
X167355056Y-82022476D01*
X167245712Y-82155712D01*
X167112476Y-82265056D01*
X167011137Y-82319222D01*
X166960469Y-82346305D01*
X166905489Y-82362983D01*
X166795530Y-82396339D01*
X166709829Y-82404780D01*
X166666980Y-82409000D01*
X166581020Y-82409000D01*
X166538171Y-82404780D01*
X166452470Y-82396339D01*
X166342511Y-82362983D01*
X166287531Y-82346305D01*
X166236863Y-82319222D01*
X166135524Y-82265056D01*
X166002288Y-82155712D01*
X165892944Y-82022476D01*
X165828395Y-81901712D01*
X165811695Y-81870469D01*
X165780755Y-81768474D01*
X165761661Y-81705530D01*
X165748398Y-81570868D01*
X165743617Y-81546834D01*
X165738301Y-81534000D01*
X165743618Y-81521165D01*
X165748398Y-81497132D01*
X165761661Y-81362472D01*
X165761661Y-81362470D01*
X165811695Y-81197532D01*
X165811695Y-81197531D01*
X165859299Y-81108470D01*
X165892944Y-81045524D01*
X166002288Y-80912288D01*
X166135524Y-80802944D01*
X166236863Y-80748778D01*
X166287531Y-80721695D01*
X166342511Y-80705017D01*
X166452470Y-80671661D01*
X166538171Y-80663220D01*
X166581020Y-80659000D01*
X166666980Y-80659000D01*
X166709829Y-80663220D01*
X166709829Y-80663220D01*
G37*
G36*
X168709829Y-80663220D02*
X168795530Y-80671661D01*
X168905489Y-80705017D01*
X168960469Y-80721695D01*
X169011137Y-80748778D01*
X169112476Y-80802944D01*
X169245712Y-80912288D01*
X169355056Y-81045524D01*
X169388701Y-81108470D01*
X169436305Y-81197531D01*
X169436305Y-81197532D01*
X169486339Y-81362470D01*
X169486339Y-81362472D01*
X169499602Y-81497132D01*
X169504383Y-81521166D01*
X169509482Y-81533476D01*
X169508515Y-81535285D01*
X169499602Y-81570868D01*
X169486339Y-81705530D01*
X169467245Y-81768474D01*
X169436305Y-81870469D01*
X169419605Y-81901712D01*
X169355056Y-82022476D01*
X169245712Y-82155712D01*
X169112476Y-82265056D01*
X169011137Y-82319222D01*
X168960469Y-82346305D01*
X168905489Y-82362983D01*
X168795530Y-82396339D01*
X168709829Y-82404780D01*
X168666980Y-82409000D01*
X168581020Y-82409000D01*
X168538171Y-82404780D01*
X168452470Y-82396339D01*
X168342511Y-82362983D01*
X168287531Y-82346305D01*
X168236863Y-82319222D01*
X168135524Y-82265056D01*
X168002288Y-82155712D01*
X167892944Y-82022476D01*
X167828395Y-81901712D01*
X167811695Y-81870469D01*
X167780755Y-81768474D01*
X167761661Y-81705530D01*
X167748398Y-81570868D01*
X167743617Y-81546834D01*
X167738301Y-81534000D01*
X167743618Y-81521165D01*
X167748398Y-81497132D01*
X167761661Y-81362472D01*
X167761661Y-81362470D01*
X167811695Y-81197532D01*
X167811695Y-81197531D01*
X167859299Y-81108470D01*
X167892944Y-81045524D01*
X168002288Y-80912288D01*
X168135524Y-80802944D01*
X168236863Y-80748778D01*
X168287531Y-80721695D01*
X168342511Y-80705017D01*
X168452470Y-80671661D01*
X168538171Y-80663220D01*
X168581020Y-80659000D01*
X168666980Y-80659000D01*
X168709829Y-80663220D01*
X168709829Y-80663220D01*
G37*
G36*
X147501829Y-80409220D02*
X147587530Y-80417661D01*
X147697489Y-80451017D01*
X147752469Y-80467695D01*
X147803137Y-80494778D01*
X147904476Y-80548944D01*
X148037712Y-80658288D01*
X148147056Y-80791524D01*
X148201222Y-80892863D01*
X148228305Y-80943531D01*
X148228305Y-80943532D01*
X148278339Y-81108470D01*
X148278339Y-81108472D01*
X148291602Y-81243132D01*
X148296383Y-81267166D01*
X148301699Y-81280000D01*
X148296382Y-81292835D01*
X148291602Y-81316868D01*
X148278339Y-81451530D01*
X148253322Y-81534000D01*
X148228305Y-81616469D01*
X148202622Y-81664518D01*
X148147056Y-81768476D01*
X148037712Y-81901712D01*
X147904476Y-82011056D01*
X147803137Y-82065222D01*
X147752469Y-82092305D01*
X147697489Y-82108983D01*
X147587530Y-82142339D01*
X147501829Y-82150780D01*
X147458980Y-82155000D01*
X147373020Y-82155000D01*
X147330171Y-82150780D01*
X147244470Y-82142339D01*
X147134511Y-82108983D01*
X147079531Y-82092305D01*
X147028863Y-82065222D01*
X146927524Y-82011056D01*
X146794288Y-81901712D01*
X146684944Y-81768476D01*
X146629378Y-81664518D01*
X146603695Y-81616469D01*
X146578678Y-81534000D01*
X146553661Y-81451530D01*
X146536767Y-81280000D01*
X146553661Y-81108470D01*
X146603695Y-80943532D01*
X146603695Y-80943531D01*
X146630778Y-80892863D01*
X146684944Y-80791524D01*
X146794288Y-80658288D01*
X146927524Y-80548944D01*
X147028863Y-80494778D01*
X147079531Y-80467695D01*
X147134511Y-80451017D01*
X147244470Y-80417661D01*
X147330171Y-80409220D01*
X147373020Y-80405000D01*
X147458980Y-80405000D01*
X147501829Y-80409220D01*
X147501829Y-80409220D01*
G37*
G36*
X149501829Y-80409220D02*
X149587530Y-80417661D01*
X149697489Y-80451017D01*
X149752469Y-80467695D01*
X149803137Y-80494778D01*
X149904476Y-80548944D01*
X150037712Y-80658288D01*
X150147056Y-80791524D01*
X150201222Y-80892863D01*
X150228305Y-80943531D01*
X150228305Y-80943532D01*
X150278339Y-81108470D01*
X150278339Y-81108472D01*
X150291602Y-81243132D01*
X150296383Y-81267166D01*
X150301699Y-81280000D01*
X150296382Y-81292835D01*
X150291602Y-81316868D01*
X150278339Y-81451530D01*
X150253322Y-81534000D01*
X150228305Y-81616469D01*
X150202622Y-81664518D01*
X150147056Y-81768476D01*
X150037712Y-81901712D01*
X149904476Y-82011056D01*
X149803137Y-82065222D01*
X149752469Y-82092305D01*
X149697489Y-82108983D01*
X149587530Y-82142339D01*
X149501829Y-82150780D01*
X149458980Y-82155000D01*
X149373020Y-82155000D01*
X149330171Y-82150780D01*
X149244470Y-82142339D01*
X149134511Y-82108983D01*
X149079531Y-82092305D01*
X149028863Y-82065222D01*
X148927524Y-82011056D01*
X148794288Y-81901712D01*
X148684944Y-81768476D01*
X148629378Y-81664518D01*
X148603695Y-81616469D01*
X148578678Y-81534000D01*
X148553661Y-81451530D01*
X148540398Y-81316868D01*
X148535617Y-81292834D01*
X148530301Y-81280000D01*
X148535618Y-81267165D01*
X148540398Y-81243132D01*
X148553661Y-81108472D01*
X148553661Y-81108470D01*
X148603695Y-80943532D01*
X148603695Y-80943531D01*
X148630778Y-80892863D01*
X148684944Y-80791524D01*
X148794288Y-80658288D01*
X148927524Y-80548944D01*
X149028863Y-80494778D01*
X149079531Y-80467695D01*
X149134511Y-80451017D01*
X149244470Y-80417661D01*
X149330171Y-80409220D01*
X149373020Y-80405000D01*
X149458980Y-80405000D01*
X149501829Y-80409220D01*
X149501829Y-80409220D01*
G37*
G36*
X151501829Y-80409220D02*
X151587530Y-80417661D01*
X151697489Y-80451017D01*
X151752469Y-80467695D01*
X151803137Y-80494778D01*
X151904476Y-80548944D01*
X152037712Y-80658288D01*
X152147056Y-80791524D01*
X152201222Y-80892863D01*
X152228305Y-80943531D01*
X152228305Y-80943532D01*
X152278339Y-81108470D01*
X152278339Y-81108472D01*
X152291602Y-81243132D01*
X152296383Y-81267166D01*
X152301482Y-81279476D01*
X152300515Y-81281285D01*
X152291602Y-81316868D01*
X152278339Y-81451530D01*
X152253322Y-81534000D01*
X152228305Y-81616469D01*
X152202622Y-81664518D01*
X152147056Y-81768476D01*
X152037712Y-81901712D01*
X151904476Y-82011056D01*
X151803137Y-82065222D01*
X151752469Y-82092305D01*
X151697489Y-82108983D01*
X151587530Y-82142339D01*
X151501829Y-82150780D01*
X151458980Y-82155000D01*
X151373020Y-82155000D01*
X151330171Y-82150780D01*
X151244470Y-82142339D01*
X151134511Y-82108983D01*
X151079531Y-82092305D01*
X151028863Y-82065222D01*
X150927524Y-82011056D01*
X150794288Y-81901712D01*
X150684944Y-81768476D01*
X150629378Y-81664518D01*
X150603695Y-81616469D01*
X150578678Y-81534000D01*
X150553661Y-81451530D01*
X150540398Y-81316868D01*
X150535617Y-81292834D01*
X150530301Y-81280000D01*
X150535618Y-81267165D01*
X150540398Y-81243132D01*
X150553661Y-81108472D01*
X150553661Y-81108470D01*
X150603695Y-80943532D01*
X150603695Y-80943531D01*
X150630778Y-80892863D01*
X150684944Y-80791524D01*
X150794288Y-80658288D01*
X150927524Y-80548944D01*
X151028863Y-80494778D01*
X151079531Y-80467695D01*
X151134511Y-80451017D01*
X151244470Y-80417661D01*
X151330171Y-80409220D01*
X151373020Y-80405000D01*
X151458980Y-80405000D01*
X151501829Y-80409220D01*
X151501829Y-80409220D01*
G37*
G36*
X154291000Y-82155000D02*
X152541000Y-82155000D01*
X152541000Y-81329120D01*
X152538598Y-81304734D01*
X152531485Y-81281285D01*
X152530518Y-81279476D01*
X152535618Y-81267165D01*
X152541000Y-81230880D01*
X152541000Y-80405000D01*
X154291000Y-80405000D01*
X154291000Y-82155000D01*
X154291000Y-82155000D01*
G37*
G36*
X136737829Y-80409220D02*
X136823530Y-80417661D01*
X136933489Y-80451017D01*
X136988469Y-80467695D01*
X137039137Y-80494778D01*
X137140476Y-80548944D01*
X137273712Y-80658288D01*
X137383056Y-80791524D01*
X137437222Y-80892863D01*
X137464305Y-80943531D01*
X137464305Y-80943532D01*
X137514339Y-81108470D01*
X137514339Y-81108472D01*
X137527602Y-81243132D01*
X137532383Y-81267166D01*
X137537699Y-81280000D01*
X137532382Y-81292835D01*
X137527602Y-81316868D01*
X137514339Y-81451530D01*
X137489322Y-81534000D01*
X137464305Y-81616469D01*
X137438622Y-81664518D01*
X137383056Y-81768476D01*
X137273712Y-81901712D01*
X137140476Y-82011056D01*
X137039137Y-82065222D01*
X136988469Y-82092305D01*
X136933489Y-82108983D01*
X136823530Y-82142339D01*
X136737829Y-82150780D01*
X136694980Y-82155000D01*
X136609020Y-82155000D01*
X136566171Y-82150780D01*
X136480470Y-82142339D01*
X136370511Y-82108983D01*
X136315531Y-82092305D01*
X136264863Y-82065222D01*
X136163524Y-82011056D01*
X136030288Y-81901712D01*
X135920944Y-81768476D01*
X135865378Y-81664518D01*
X135839695Y-81616469D01*
X135814678Y-81534000D01*
X135789661Y-81451530D01*
X135776398Y-81316868D01*
X135771617Y-81292834D01*
X135766301Y-81280000D01*
X135771618Y-81267165D01*
X135776398Y-81243132D01*
X135789661Y-81108472D01*
X135789661Y-81108470D01*
X135839695Y-80943532D01*
X135839695Y-80943531D01*
X135866778Y-80892863D01*
X135920944Y-80791524D01*
X136030288Y-80658288D01*
X136163524Y-80548944D01*
X136264863Y-80494778D01*
X136315531Y-80467695D01*
X136370511Y-80451017D01*
X136480470Y-80417661D01*
X136566171Y-80409220D01*
X136609020Y-80405000D01*
X136694980Y-80405000D01*
X136737829Y-80409220D01*
X136737829Y-80409220D01*
G37*
G36*
X138737829Y-80409220D02*
X138823530Y-80417661D01*
X138933489Y-80451017D01*
X138988469Y-80467695D01*
X139039137Y-80494778D01*
X139140476Y-80548944D01*
X139273712Y-80658288D01*
X139383056Y-80791524D01*
X139437222Y-80892863D01*
X139464305Y-80943531D01*
X139464305Y-80943532D01*
X139514339Y-81108470D01*
X139514339Y-81108472D01*
X139527602Y-81243132D01*
X139532383Y-81267166D01*
X139537482Y-81279476D01*
X139536515Y-81281285D01*
X139527602Y-81316868D01*
X139514339Y-81451530D01*
X139489322Y-81534000D01*
X139464305Y-81616469D01*
X139438622Y-81664518D01*
X139383056Y-81768476D01*
X139273712Y-81901712D01*
X139140476Y-82011056D01*
X139039137Y-82065222D01*
X138988469Y-82092305D01*
X138933489Y-82108983D01*
X138823530Y-82142339D01*
X138737829Y-82150780D01*
X138694980Y-82155000D01*
X138609020Y-82155000D01*
X138566171Y-82150780D01*
X138480470Y-82142339D01*
X138370511Y-82108983D01*
X138315531Y-82092305D01*
X138264863Y-82065222D01*
X138163524Y-82011056D01*
X138030288Y-81901712D01*
X137920944Y-81768476D01*
X137865378Y-81664518D01*
X137839695Y-81616469D01*
X137814678Y-81534000D01*
X137789661Y-81451530D01*
X137776398Y-81316868D01*
X137771617Y-81292834D01*
X137766301Y-81280000D01*
X137771618Y-81267165D01*
X137776398Y-81243132D01*
X137789661Y-81108472D01*
X137789661Y-81108470D01*
X137839695Y-80943532D01*
X137839695Y-80943531D01*
X137866778Y-80892863D01*
X137920944Y-80791524D01*
X138030288Y-80658288D01*
X138163524Y-80548944D01*
X138264863Y-80494778D01*
X138315531Y-80467695D01*
X138370511Y-80451017D01*
X138480470Y-80417661D01*
X138566171Y-80409220D01*
X138609020Y-80405000D01*
X138694980Y-80405000D01*
X138737829Y-80409220D01*
X138737829Y-80409220D01*
G37*
G36*
X141527000Y-82155000D02*
X139777000Y-82155000D01*
X139777000Y-81329120D01*
X139774598Y-81304734D01*
X139767485Y-81281285D01*
X139766518Y-81279476D01*
X139771618Y-81267165D01*
X139777000Y-81230880D01*
X139777000Y-80405000D01*
X141527000Y-80405000D01*
X141527000Y-82155000D01*
X141527000Y-82155000D01*
G37*
G36*
X134737829Y-80409220D02*
X134823530Y-80417661D01*
X134933489Y-80451017D01*
X134988469Y-80467695D01*
X135039137Y-80494778D01*
X135140476Y-80548944D01*
X135273712Y-80658288D01*
X135383056Y-80791524D01*
X135437222Y-80892863D01*
X135464305Y-80943531D01*
X135464305Y-80943532D01*
X135514339Y-81108470D01*
X135514339Y-81108472D01*
X135527602Y-81243132D01*
X135532383Y-81267166D01*
X135537699Y-81280000D01*
X135532382Y-81292835D01*
X135527602Y-81316868D01*
X135514339Y-81451530D01*
X135489322Y-81534000D01*
X135464305Y-81616469D01*
X135438622Y-81664518D01*
X135383056Y-81768476D01*
X135273712Y-81901712D01*
X135140476Y-82011056D01*
X135039137Y-82065222D01*
X134988469Y-82092305D01*
X134933489Y-82108983D01*
X134823530Y-82142339D01*
X134737829Y-82150780D01*
X134694980Y-82155000D01*
X134609020Y-82155000D01*
X134566171Y-82150780D01*
X134480470Y-82142339D01*
X134370511Y-82108983D01*
X134315531Y-82092305D01*
X134264863Y-82065222D01*
X134163524Y-82011056D01*
X134030288Y-81901712D01*
X133920944Y-81768476D01*
X133865378Y-81664518D01*
X133839695Y-81616469D01*
X133814678Y-81534000D01*
X133789661Y-81451530D01*
X133772767Y-81280000D01*
X133789661Y-81108470D01*
X133839695Y-80943532D01*
X133839695Y-80943531D01*
X133866778Y-80892863D01*
X133920944Y-80791524D01*
X134030288Y-80658288D01*
X134163524Y-80548944D01*
X134264863Y-80494778D01*
X134315531Y-80467695D01*
X134370511Y-80451017D01*
X134480470Y-80417661D01*
X134566171Y-80409220D01*
X134609020Y-80405000D01*
X134694980Y-80405000D01*
X134737829Y-80409220D01*
X134737829Y-80409220D01*
G37*
G36*
X190258835Y-79669618D02*
X190282868Y-79674398D01*
X190335664Y-79679598D01*
X190417530Y-79687661D01*
X190527489Y-79721017D01*
X190582469Y-79737695D01*
X190633137Y-79764778D01*
X190734476Y-79818944D01*
X190867712Y-79928288D01*
X190977056Y-80061524D01*
X191031222Y-80162863D01*
X191058305Y-80213531D01*
X191058305Y-80213532D01*
X191108339Y-80378470D01*
X191125233Y-80550000D01*
X191108339Y-80721530D01*
X191083642Y-80802944D01*
X191058305Y-80886469D01*
X191044504Y-80912288D01*
X190977056Y-81038476D01*
X190867712Y-81171712D01*
X190734476Y-81281056D01*
X190633137Y-81335222D01*
X190582469Y-81362305D01*
X190527489Y-81378983D01*
X190417530Y-81412339D01*
X190335664Y-81420402D01*
X190282868Y-81425602D01*
X190258834Y-81430383D01*
X190246524Y-81435482D01*
X190244715Y-81434515D01*
X190209132Y-81425602D01*
X190156336Y-81420402D01*
X190074470Y-81412339D01*
X189964511Y-81378983D01*
X189909531Y-81362305D01*
X189858863Y-81335222D01*
X189757524Y-81281056D01*
X189624288Y-81171712D01*
X189514944Y-81038476D01*
X189447496Y-80912288D01*
X189433695Y-80886469D01*
X189408358Y-80802944D01*
X189383661Y-80721530D01*
X189366767Y-80550000D01*
X189383661Y-80378470D01*
X189433695Y-80213532D01*
X189433695Y-80213531D01*
X189460778Y-80162863D01*
X189514944Y-80061524D01*
X189624288Y-79928288D01*
X189757524Y-79818944D01*
X189858863Y-79764778D01*
X189909531Y-79737695D01*
X189964511Y-79721017D01*
X190074470Y-79687661D01*
X190156336Y-79679598D01*
X190209132Y-79674398D01*
X190233166Y-79669617D01*
X190246000Y-79664301D01*
X190258835Y-79669618D01*
X190258835Y-79669618D01*
G37*
G36*
X190258835Y-77669618D02*
X190282868Y-77674398D01*
X190335664Y-77679598D01*
X190417530Y-77687661D01*
X190527489Y-77721017D01*
X190582469Y-77737695D01*
X190633137Y-77764778D01*
X190734476Y-77818944D01*
X190867712Y-77928288D01*
X190977056Y-78061524D01*
X191031222Y-78162863D01*
X191058305Y-78213531D01*
X191058305Y-78213532D01*
X191108339Y-78378470D01*
X191125233Y-78550000D01*
X191108339Y-78721530D01*
X191097363Y-78757712D01*
X191058305Y-78886469D01*
X191031222Y-78937137D01*
X190977056Y-79038476D01*
X190867712Y-79171712D01*
X190734476Y-79281056D01*
X190633137Y-79335222D01*
X190582469Y-79362305D01*
X190527489Y-79378983D01*
X190417530Y-79412339D01*
X190335664Y-79420402D01*
X190282868Y-79425602D01*
X190258834Y-79430383D01*
X190246000Y-79435699D01*
X190233165Y-79430382D01*
X190209132Y-79425602D01*
X190156336Y-79420402D01*
X190074470Y-79412339D01*
X189964511Y-79378983D01*
X189909531Y-79362305D01*
X189858863Y-79335222D01*
X189757524Y-79281056D01*
X189624288Y-79171712D01*
X189514944Y-79038476D01*
X189460778Y-78937137D01*
X189433695Y-78886469D01*
X189394637Y-78757712D01*
X189383661Y-78721530D01*
X189366767Y-78550000D01*
X189383661Y-78378470D01*
X189433695Y-78213532D01*
X189433695Y-78213531D01*
X189460778Y-78162863D01*
X189514944Y-78061524D01*
X189624288Y-77928288D01*
X189757524Y-77818944D01*
X189858863Y-77764778D01*
X189909531Y-77737695D01*
X189964511Y-77721017D01*
X190074470Y-77687661D01*
X190156336Y-77679598D01*
X190209132Y-77674398D01*
X190233166Y-77669617D01*
X190246000Y-77664301D01*
X190258835Y-77669618D01*
X190258835Y-77669618D01*
G37*
G36*
X113550835Y-77255618D02*
X113574868Y-77260398D01*
X113627664Y-77265598D01*
X113709530Y-77273661D01*
X113819489Y-77307017D01*
X113874469Y-77323695D01*
X113925137Y-77350778D01*
X114026476Y-77404944D01*
X114159712Y-77514288D01*
X114269056Y-77647524D01*
X114290509Y-77687661D01*
X114350305Y-77799531D01*
X114350305Y-77799532D01*
X114400339Y-77964470D01*
X114417233Y-78136000D01*
X114400339Y-78307530D01*
X114378819Y-78378470D01*
X114350305Y-78472469D01*
X114323222Y-78523137D01*
X114269056Y-78624476D01*
X114159712Y-78757712D01*
X114026476Y-78867056D01*
X113925137Y-78921222D01*
X113874469Y-78948305D01*
X113819489Y-78964983D01*
X113709530Y-78998339D01*
X113623829Y-79006780D01*
X113580980Y-79011000D01*
X113495020Y-79011000D01*
X113452171Y-79006780D01*
X113366470Y-78998339D01*
X113256511Y-78964983D01*
X113201531Y-78948305D01*
X113150863Y-78921222D01*
X113049524Y-78867056D01*
X112916288Y-78757712D01*
X112806944Y-78624476D01*
X112752778Y-78523137D01*
X112725695Y-78472469D01*
X112697181Y-78378470D01*
X112675661Y-78307530D01*
X112658767Y-78136000D01*
X112675661Y-77964470D01*
X112725695Y-77799532D01*
X112725695Y-77799531D01*
X112785491Y-77687661D01*
X112806944Y-77647524D01*
X112916288Y-77514288D01*
X113049524Y-77404944D01*
X113150863Y-77350778D01*
X113201531Y-77323695D01*
X113256511Y-77307017D01*
X113366470Y-77273661D01*
X113448336Y-77265598D01*
X113501132Y-77260398D01*
X113525166Y-77255617D01*
X113538000Y-77250301D01*
X113550835Y-77255618D01*
X113550835Y-77255618D01*
G37*
G36*
X190331829Y-75679220D02*
X190417530Y-75687661D01*
X190527489Y-75721017D01*
X190582469Y-75737695D01*
X190633137Y-75764778D01*
X190734476Y-75818944D01*
X190867712Y-75928288D01*
X190977056Y-76061524D01*
X191031222Y-76162863D01*
X191058305Y-76213531D01*
X191058305Y-76213532D01*
X191108339Y-76378470D01*
X191125233Y-76550000D01*
X191108339Y-76721530D01*
X191097363Y-76757712D01*
X191058305Y-76886469D01*
X191031222Y-76937137D01*
X190977056Y-77038476D01*
X190867712Y-77171712D01*
X190734476Y-77281056D01*
X190654703Y-77323695D01*
X190582469Y-77362305D01*
X190527489Y-77378983D01*
X190417530Y-77412339D01*
X190335664Y-77420402D01*
X190282868Y-77425602D01*
X190258834Y-77430383D01*
X190246000Y-77435699D01*
X190233165Y-77430382D01*
X190209132Y-77425602D01*
X190156336Y-77420402D01*
X190074470Y-77412339D01*
X189964511Y-77378983D01*
X189909531Y-77362305D01*
X189837297Y-77323695D01*
X189757524Y-77281056D01*
X189624288Y-77171712D01*
X189514944Y-77038476D01*
X189460778Y-76937137D01*
X189433695Y-76886469D01*
X189394637Y-76757712D01*
X189383661Y-76721530D01*
X189366767Y-76550000D01*
X189383661Y-76378470D01*
X189433695Y-76213532D01*
X189433695Y-76213531D01*
X189460778Y-76162863D01*
X189514944Y-76061524D01*
X189624288Y-75928288D01*
X189757524Y-75818944D01*
X189858863Y-75764778D01*
X189909531Y-75737695D01*
X189964511Y-75721017D01*
X190074470Y-75687661D01*
X190160171Y-75679220D01*
X190203020Y-75675000D01*
X190288980Y-75675000D01*
X190331829Y-75679220D01*
X190331829Y-75679220D01*
G37*
G36*
X113550835Y-75255618D02*
X113574868Y-75260398D01*
X113627664Y-75265598D01*
X113709530Y-75273661D01*
X113819489Y-75307017D01*
X113874469Y-75323695D01*
X113925137Y-75350778D01*
X114026476Y-75404944D01*
X114159712Y-75514288D01*
X114269056Y-75647524D01*
X114290509Y-75687661D01*
X114350305Y-75799531D01*
X114350305Y-75799532D01*
X114400339Y-75964470D01*
X114417233Y-76136000D01*
X114400339Y-76307530D01*
X114378819Y-76378470D01*
X114350305Y-76472469D01*
X114323222Y-76523137D01*
X114269056Y-76624476D01*
X114159712Y-76757712D01*
X114026476Y-76867056D01*
X113925137Y-76921222D01*
X113874469Y-76948305D01*
X113819489Y-76964983D01*
X113709530Y-76998339D01*
X113627664Y-77006402D01*
X113574868Y-77011602D01*
X113550834Y-77016383D01*
X113538000Y-77021699D01*
X113525165Y-77016382D01*
X113501132Y-77011602D01*
X113448336Y-77006402D01*
X113366470Y-76998339D01*
X113256511Y-76964983D01*
X113201531Y-76948305D01*
X113150863Y-76921222D01*
X113049524Y-76867056D01*
X112916288Y-76757712D01*
X112806944Y-76624476D01*
X112752778Y-76523137D01*
X112725695Y-76472469D01*
X112697181Y-76378470D01*
X112675661Y-76307530D01*
X112658767Y-76136000D01*
X112675661Y-75964470D01*
X112725695Y-75799532D01*
X112725695Y-75799531D01*
X112785491Y-75687661D01*
X112806944Y-75647524D01*
X112916288Y-75514288D01*
X113049524Y-75404944D01*
X113150863Y-75350778D01*
X113201531Y-75323695D01*
X113256511Y-75307017D01*
X113366470Y-75273661D01*
X113448336Y-75265598D01*
X113501132Y-75260398D01*
X113525166Y-75255617D01*
X113538000Y-75250301D01*
X113550835Y-75255618D01*
X113550835Y-75255618D01*
G37*
G36*
X113539285Y-73251485D02*
X113574868Y-73260398D01*
X113627664Y-73265598D01*
X113709530Y-73273661D01*
X113819489Y-73307017D01*
X113874469Y-73323695D01*
X113925137Y-73350778D01*
X114026476Y-73404944D01*
X114159712Y-73514288D01*
X114269056Y-73647524D01*
X114323222Y-73748863D01*
X114350305Y-73799531D01*
X114350305Y-73799532D01*
X114400339Y-73964470D01*
X114417233Y-74136000D01*
X114400339Y-74307530D01*
X114366983Y-74417489D01*
X114350305Y-74472469D01*
X114323222Y-74523137D01*
X114269056Y-74624476D01*
X114159712Y-74757712D01*
X114026476Y-74867056D01*
X113925137Y-74921222D01*
X113874469Y-74948305D01*
X113819489Y-74964983D01*
X113709530Y-74998339D01*
X113627664Y-75006402D01*
X113574868Y-75011602D01*
X113550834Y-75016383D01*
X113538000Y-75021699D01*
X113525165Y-75016382D01*
X113501132Y-75011602D01*
X113448336Y-75006402D01*
X113366470Y-74998339D01*
X113256511Y-74964983D01*
X113201531Y-74948305D01*
X113150863Y-74921222D01*
X113049524Y-74867056D01*
X112916288Y-74757712D01*
X112806944Y-74624476D01*
X112752778Y-74523137D01*
X112725695Y-74472469D01*
X112709017Y-74417489D01*
X112675661Y-74307530D01*
X112658767Y-74136000D01*
X112675661Y-73964470D01*
X112725695Y-73799532D01*
X112725695Y-73799531D01*
X112752778Y-73748863D01*
X112806944Y-73647524D01*
X112916288Y-73514288D01*
X113049524Y-73404944D01*
X113150863Y-73350778D01*
X113201531Y-73323695D01*
X113256511Y-73307017D01*
X113366470Y-73273661D01*
X113448336Y-73265598D01*
X113501132Y-73260398D01*
X113525166Y-73255617D01*
X113537476Y-73250518D01*
X113539285Y-73251485D01*
X113539285Y-73251485D01*
G37*
G36*
X114413000Y-73011000D02*
X113587120Y-73011000D01*
X113562734Y-73013402D01*
X113539285Y-73020515D01*
X113537476Y-73021482D01*
X113525165Y-73016382D01*
X113488880Y-73011000D01*
X112663000Y-73011000D01*
X112663000Y-71261000D01*
X114413000Y-71261000D01*
X114413000Y-73011000D01*
X114413000Y-73011000D01*
G37*
G36*
X135398771Y-60503711D02*
X135514690Y-60526768D01*
X135696679Y-60602150D01*
X135860464Y-60711588D01*
X135999752Y-60850876D01*
X136109190Y-61014661D01*
X136184572Y-61196650D01*
X136223001Y-61389848D01*
X136223001Y-61586830D01*
X136184572Y-61780028D01*
X136109190Y-61962017D01*
X135999752Y-62125802D01*
X135860464Y-62265090D01*
X135696679Y-62374528D01*
X135514690Y-62449910D01*
X135398771Y-62472967D01*
X135321494Y-62488339D01*
X135124508Y-62488339D01*
X135047231Y-62472967D01*
X134931312Y-62449910D01*
X134749323Y-62374528D01*
X134585538Y-62265090D01*
X134446250Y-62125802D01*
X134336812Y-61962017D01*
X134261430Y-61780028D01*
X134223001Y-61586830D01*
X134223001Y-61389848D01*
X134261430Y-61196650D01*
X134336812Y-61014661D01*
X134446250Y-60850876D01*
X134585538Y-60711588D01*
X134749323Y-60602150D01*
X134931312Y-60526768D01*
X135047231Y-60503711D01*
X135124508Y-60488339D01*
X135321494Y-60488339D01*
X135398771Y-60503711D01*
X135398771Y-60503711D01*
G37*
G36*
X138168771Y-60503711D02*
X138284690Y-60526768D01*
X138466679Y-60602150D01*
X138630464Y-60711588D01*
X138769752Y-60850876D01*
X138879190Y-61014661D01*
X138954572Y-61196650D01*
X138993001Y-61389848D01*
X138993001Y-61586830D01*
X138954572Y-61780028D01*
X138879190Y-61962017D01*
X138769752Y-62125802D01*
X138630464Y-62265090D01*
X138466679Y-62374528D01*
X138284690Y-62449910D01*
X138168771Y-62472967D01*
X138091494Y-62488339D01*
X137894508Y-62488339D01*
X137817231Y-62472967D01*
X137701312Y-62449910D01*
X137519323Y-62374528D01*
X137355538Y-62265090D01*
X137216250Y-62125802D01*
X137106812Y-61962017D01*
X137031430Y-61780028D01*
X136993001Y-61586830D01*
X136993001Y-61389848D01*
X137031430Y-61196650D01*
X137106812Y-61014661D01*
X137216250Y-60850876D01*
X137355538Y-60711588D01*
X137519323Y-60602150D01*
X137701312Y-60526768D01*
X137817231Y-60503711D01*
X137894508Y-60488339D01*
X138091494Y-60488339D01*
X138168771Y-60503711D01*
X138168771Y-60503711D01*
G37*
G36*
X140938771Y-60503711D02*
X141054690Y-60526768D01*
X141236679Y-60602150D01*
X141400464Y-60711588D01*
X141539752Y-60850876D01*
X141649190Y-61014661D01*
X141724572Y-61196650D01*
X141763001Y-61389848D01*
X141763001Y-61586830D01*
X141724572Y-61780028D01*
X141649190Y-61962017D01*
X141539752Y-62125802D01*
X141400464Y-62265090D01*
X141236679Y-62374528D01*
X141054690Y-62449910D01*
X140938771Y-62472967D01*
X140861494Y-62488339D01*
X140664508Y-62488339D01*
X140587231Y-62472967D01*
X140471312Y-62449910D01*
X140289323Y-62374528D01*
X140125538Y-62265090D01*
X139986250Y-62125802D01*
X139876812Y-61962017D01*
X139801430Y-61780028D01*
X139763001Y-61586830D01*
X139763001Y-61389848D01*
X139801430Y-61196650D01*
X139876812Y-61014661D01*
X139986250Y-60850876D01*
X140125538Y-60711588D01*
X140289323Y-60602150D01*
X140471312Y-60526768D01*
X140587231Y-60503711D01*
X140664508Y-60488339D01*
X140861494Y-60488339D01*
X140938771Y-60503711D01*
X140938771Y-60503711D01*
G37*
G36*
X143708771Y-60503711D02*
X143824690Y-60526768D01*
X144006679Y-60602150D01*
X144170464Y-60711588D01*
X144309752Y-60850876D01*
X144419190Y-61014661D01*
X144494572Y-61196650D01*
X144533001Y-61389848D01*
X144533001Y-61586830D01*
X144494572Y-61780028D01*
X144419190Y-61962017D01*
X144309752Y-62125802D01*
X144170464Y-62265090D01*
X144006679Y-62374528D01*
X143824690Y-62449910D01*
X143708771Y-62472967D01*
X143631494Y-62488339D01*
X143434508Y-62488339D01*
X143357231Y-62472967D01*
X143241312Y-62449910D01*
X143059323Y-62374528D01*
X142895538Y-62265090D01*
X142756250Y-62125802D01*
X142646812Y-61962017D01*
X142571430Y-61780028D01*
X142533001Y-61586830D01*
X142533001Y-61389848D01*
X142571430Y-61196650D01*
X142646812Y-61014661D01*
X142756250Y-60850876D01*
X142895538Y-60711588D01*
X143059323Y-60602150D01*
X143241312Y-60526768D01*
X143357231Y-60503711D01*
X143434508Y-60488339D01*
X143631494Y-60488339D01*
X143708771Y-60503711D01*
X143708771Y-60503711D01*
G37*
G36*
X146478771Y-60503711D02*
X146594690Y-60526768D01*
X146776679Y-60602150D01*
X146940464Y-60711588D01*
X147079752Y-60850876D01*
X147189190Y-61014661D01*
X147264572Y-61196650D01*
X147303001Y-61389848D01*
X147303001Y-61586830D01*
X147264572Y-61780028D01*
X147189190Y-61962017D01*
X147079752Y-62125802D01*
X146940464Y-62265090D01*
X146776679Y-62374528D01*
X146594690Y-62449910D01*
X146478771Y-62472967D01*
X146401494Y-62488339D01*
X146204508Y-62488339D01*
X146127231Y-62472967D01*
X146011312Y-62449910D01*
X145829323Y-62374528D01*
X145665538Y-62265090D01*
X145526250Y-62125802D01*
X145416812Y-61962017D01*
X145341430Y-61780028D01*
X145303001Y-61586830D01*
X145303001Y-61389848D01*
X145341430Y-61196650D01*
X145416812Y-61014661D01*
X145526250Y-60850876D01*
X145665538Y-60711588D01*
X145829323Y-60602150D01*
X146011312Y-60526768D01*
X146127231Y-60503711D01*
X146204508Y-60488339D01*
X146401494Y-60488339D01*
X146478771Y-60503711D01*
X146478771Y-60503711D01*
G37*
G36*
X154788771Y-60503711D02*
X154904690Y-60526768D01*
X155086679Y-60602150D01*
X155250464Y-60711588D01*
X155389752Y-60850876D01*
X155499190Y-61014661D01*
X155574572Y-61196650D01*
X155613001Y-61389848D01*
X155613001Y-61586830D01*
X155574572Y-61780028D01*
X155499190Y-61962017D01*
X155389752Y-62125802D01*
X155250464Y-62265090D01*
X155086679Y-62374528D01*
X154904690Y-62449910D01*
X154788771Y-62472967D01*
X154711494Y-62488339D01*
X154514508Y-62488339D01*
X154437231Y-62472967D01*
X154321312Y-62449910D01*
X154139323Y-62374528D01*
X153975538Y-62265090D01*
X153836250Y-62125802D01*
X153726812Y-61962017D01*
X153651430Y-61780028D01*
X153613001Y-61586830D01*
X153613001Y-61389848D01*
X153651430Y-61196650D01*
X153726812Y-61014661D01*
X153836250Y-60850876D01*
X153975538Y-60711588D01*
X154139323Y-60602150D01*
X154321312Y-60526768D01*
X154437231Y-60503711D01*
X154514508Y-60488339D01*
X154711494Y-60488339D01*
X154788771Y-60503711D01*
X154788771Y-60503711D01*
G37*
G36*
X149248771Y-60503711D02*
X149364690Y-60526768D01*
X149546679Y-60602150D01*
X149710464Y-60711588D01*
X149849752Y-60850876D01*
X149959190Y-61014661D01*
X150034572Y-61196650D01*
X150073001Y-61389848D01*
X150073001Y-61586830D01*
X150034572Y-61780028D01*
X149959190Y-61962017D01*
X149849752Y-62125802D01*
X149710464Y-62265090D01*
X149546679Y-62374528D01*
X149364690Y-62449910D01*
X149248771Y-62472967D01*
X149171494Y-62488339D01*
X148974508Y-62488339D01*
X148897231Y-62472967D01*
X148781312Y-62449910D01*
X148599323Y-62374528D01*
X148435538Y-62265090D01*
X148296250Y-62125802D01*
X148186812Y-61962017D01*
X148111430Y-61780028D01*
X148073001Y-61586830D01*
X148073001Y-61389848D01*
X148111430Y-61196650D01*
X148186812Y-61014661D01*
X148296250Y-60850876D01*
X148435538Y-60711588D01*
X148599323Y-60602150D01*
X148781312Y-60526768D01*
X148897231Y-60503711D01*
X148974508Y-60488339D01*
X149171494Y-60488339D01*
X149248771Y-60503711D01*
X149248771Y-60503711D01*
G37*
G36*
X157558771Y-60503711D02*
X157674690Y-60526768D01*
X157856679Y-60602150D01*
X158020464Y-60711588D01*
X158159752Y-60850876D01*
X158269190Y-61014661D01*
X158344572Y-61196650D01*
X158383001Y-61389848D01*
X158383001Y-61586830D01*
X158344572Y-61780028D01*
X158269190Y-61962017D01*
X158159752Y-62125802D01*
X158020464Y-62265090D01*
X157856679Y-62374528D01*
X157674690Y-62449910D01*
X157558771Y-62472967D01*
X157481494Y-62488339D01*
X157284508Y-62488339D01*
X157207231Y-62472967D01*
X157091312Y-62449910D01*
X156909323Y-62374528D01*
X156745538Y-62265090D01*
X156606250Y-62125802D01*
X156496812Y-61962017D01*
X156421430Y-61780028D01*
X156383001Y-61586830D01*
X156383001Y-61389848D01*
X156421430Y-61196650D01*
X156496812Y-61014661D01*
X156606250Y-60850876D01*
X156745538Y-60711588D01*
X156909323Y-60602150D01*
X157091312Y-60526768D01*
X157207231Y-60503711D01*
X157284508Y-60488339D01*
X157481494Y-60488339D01*
X157558771Y-60503711D01*
X157558771Y-60503711D01*
G37*
G36*
X160328771Y-60503711D02*
X160444690Y-60526768D01*
X160626679Y-60602150D01*
X160790464Y-60711588D01*
X160929752Y-60850876D01*
X161039190Y-61014661D01*
X161114572Y-61196650D01*
X161153001Y-61389848D01*
X161153001Y-61586830D01*
X161114572Y-61780028D01*
X161039190Y-61962017D01*
X160929752Y-62125802D01*
X160790464Y-62265090D01*
X160626679Y-62374528D01*
X160444690Y-62449910D01*
X160328771Y-62472967D01*
X160251494Y-62488339D01*
X160054508Y-62488339D01*
X159977231Y-62472967D01*
X159861312Y-62449910D01*
X159679323Y-62374528D01*
X159515538Y-62265090D01*
X159376250Y-62125802D01*
X159266812Y-61962017D01*
X159191430Y-61780028D01*
X159153001Y-61586830D01*
X159153001Y-61389848D01*
X159191430Y-61196650D01*
X159266812Y-61014661D01*
X159376250Y-60850876D01*
X159515538Y-60711588D01*
X159679323Y-60602150D01*
X159861312Y-60526768D01*
X159977231Y-60503711D01*
X160054508Y-60488339D01*
X160251494Y-60488339D01*
X160328771Y-60503711D01*
X160328771Y-60503711D01*
G37*
G36*
X165868771Y-60503711D02*
X165984690Y-60526768D01*
X166166679Y-60602150D01*
X166330464Y-60711588D01*
X166469752Y-60850876D01*
X166579190Y-61014661D01*
X166654572Y-61196650D01*
X166693001Y-61389848D01*
X166693001Y-61586830D01*
X166654572Y-61780028D01*
X166579190Y-61962017D01*
X166469752Y-62125802D01*
X166330464Y-62265090D01*
X166166679Y-62374528D01*
X165984690Y-62449910D01*
X165868771Y-62472967D01*
X165791494Y-62488339D01*
X165594508Y-62488339D01*
X165517231Y-62472967D01*
X165401312Y-62449910D01*
X165219323Y-62374528D01*
X165055538Y-62265090D01*
X164916250Y-62125802D01*
X164806812Y-61962017D01*
X164731430Y-61780028D01*
X164693001Y-61586830D01*
X164693001Y-61389848D01*
X164731430Y-61196650D01*
X164806812Y-61014661D01*
X164916250Y-60850876D01*
X165055538Y-60711588D01*
X165219323Y-60602150D01*
X165401312Y-60526768D01*
X165517231Y-60503711D01*
X165594508Y-60488339D01*
X165791494Y-60488339D01*
X165868771Y-60503711D01*
X165868771Y-60503711D01*
G37*
G36*
X169463001Y-62488339D02*
X167463001Y-62488339D01*
X167463001Y-60488339D01*
X169463001Y-60488339D01*
X169463001Y-62488339D01*
X169463001Y-62488339D01*
G37*
G36*
X163098771Y-60503711D02*
X163214690Y-60526768D01*
X163396679Y-60602150D01*
X163560464Y-60711588D01*
X163699752Y-60850876D01*
X163809190Y-61014661D01*
X163884572Y-61196650D01*
X163923001Y-61389848D01*
X163923001Y-61586830D01*
X163884572Y-61780028D01*
X163809190Y-61962017D01*
X163699752Y-62125802D01*
X163560464Y-62265090D01*
X163396679Y-62374528D01*
X163214690Y-62449910D01*
X163098771Y-62472967D01*
X163021494Y-62488339D01*
X162824508Y-62488339D01*
X162747231Y-62472967D01*
X162631312Y-62449910D01*
X162449323Y-62374528D01*
X162285538Y-62265090D01*
X162146250Y-62125802D01*
X162036812Y-61962017D01*
X161961430Y-61780028D01*
X161923001Y-61586830D01*
X161923001Y-61389848D01*
X161961430Y-61196650D01*
X162036812Y-61014661D01*
X162146250Y-60850876D01*
X162285538Y-60711588D01*
X162449323Y-60602150D01*
X162631312Y-60526768D01*
X162747231Y-60503711D01*
X162824508Y-60488339D01*
X163021494Y-60488339D01*
X163098771Y-60503711D01*
X163098771Y-60503711D01*
G37*
G36*
X152018771Y-60503711D02*
X152134690Y-60526768D01*
X152316679Y-60602150D01*
X152480464Y-60711588D01*
X152619752Y-60850876D01*
X152729190Y-61014661D01*
X152804572Y-61196650D01*
X152843001Y-61389848D01*
X152843001Y-61586830D01*
X152804572Y-61780028D01*
X152729190Y-61962017D01*
X152619752Y-62125802D01*
X152480464Y-62265090D01*
X152316679Y-62374528D01*
X152134690Y-62449910D01*
X152018771Y-62472967D01*
X151941494Y-62488339D01*
X151744508Y-62488339D01*
X151667231Y-62472967D01*
X151551312Y-62449910D01*
X151369323Y-62374528D01*
X151205538Y-62265090D01*
X151066250Y-62125802D01*
X150956812Y-61962017D01*
X150881430Y-61780028D01*
X150843001Y-61586830D01*
X150843001Y-61389848D01*
X150881430Y-61196650D01*
X150956812Y-61014661D01*
X151066250Y-60850876D01*
X151205538Y-60711588D01*
X151369323Y-60602150D01*
X151551312Y-60526768D01*
X151667231Y-60503711D01*
X151744508Y-60488339D01*
X151941494Y-60488339D01*
X152018771Y-60503711D01*
X152018771Y-60503711D01*
G37*
G36*
X176034717Y-57952883D02*
X176435091Y-58118723D01*
X176795422Y-58359489D01*
X177101851Y-58665918D01*
X177342617Y-59026249D01*
X177508457Y-59426623D01*
X177593001Y-59851656D01*
X177593001Y-60285022D01*
X177508457Y-60710055D01*
X177342617Y-61110429D01*
X177101851Y-61470760D01*
X176795422Y-61777189D01*
X176435091Y-62017955D01*
X176034717Y-62183795D01*
X175609684Y-62268339D01*
X175176318Y-62268339D01*
X174751285Y-62183795D01*
X174350911Y-62017955D01*
X173990580Y-61777189D01*
X173684151Y-61470760D01*
X173443385Y-61110429D01*
X173277545Y-60710055D01*
X173193001Y-60285022D01*
X173193001Y-59851656D01*
X173277545Y-59426623D01*
X173443385Y-59026249D01*
X173684151Y-58665918D01*
X173990580Y-58359489D01*
X174350911Y-58118723D01*
X174751285Y-57952883D01*
X175176318Y-57868339D01*
X175609684Y-57868339D01*
X176034717Y-57952883D01*
X176034717Y-57952883D01*
G37*
G36*
X128934717Y-57952883D02*
X129335091Y-58118723D01*
X129695422Y-58359489D01*
X130001851Y-58665918D01*
X130242617Y-59026249D01*
X130408457Y-59426623D01*
X130493001Y-59851656D01*
X130493001Y-60285022D01*
X130408457Y-60710055D01*
X130242617Y-61110429D01*
X130001851Y-61470760D01*
X129695422Y-61777189D01*
X129335091Y-62017955D01*
X128934717Y-62183795D01*
X128509684Y-62268339D01*
X128076318Y-62268339D01*
X127651285Y-62183795D01*
X127250911Y-62017955D01*
X126890580Y-61777189D01*
X126584151Y-61470760D01*
X126343385Y-61110429D01*
X126177545Y-60710055D01*
X126093001Y-60285022D01*
X126093001Y-59851656D01*
X126177545Y-59426623D01*
X126343385Y-59026249D01*
X126584151Y-58665918D01*
X126890580Y-58359489D01*
X127250911Y-58118723D01*
X127651285Y-57952883D01*
X128076318Y-57868339D01*
X128509684Y-57868339D01*
X128934717Y-57952883D01*
X128934717Y-57952883D01*
G37*
G36*
X158943771Y-57663711D02*
X159059690Y-57686768D01*
X159241679Y-57762150D01*
X159405464Y-57871588D01*
X159544752Y-58010876D01*
X159654190Y-58174661D01*
X159729572Y-58356650D01*
X159768001Y-58549848D01*
X159768001Y-58746830D01*
X159729572Y-58940028D01*
X159654190Y-59122017D01*
X159544752Y-59285802D01*
X159405464Y-59425090D01*
X159241679Y-59534528D01*
X159059690Y-59609910D01*
X158943771Y-59632967D01*
X158866494Y-59648339D01*
X158669508Y-59648339D01*
X158592231Y-59632967D01*
X158476312Y-59609910D01*
X158294323Y-59534528D01*
X158130538Y-59425090D01*
X157991250Y-59285802D01*
X157881812Y-59122017D01*
X157806430Y-58940028D01*
X157768001Y-58746830D01*
X157768001Y-58549848D01*
X157806430Y-58356650D01*
X157881812Y-58174661D01*
X157991250Y-58010876D01*
X158130538Y-57871588D01*
X158294323Y-57762150D01*
X158476312Y-57686768D01*
X158592231Y-57663711D01*
X158669508Y-57648339D01*
X158866494Y-57648339D01*
X158943771Y-57663711D01*
X158943771Y-57663711D01*
G37*
G36*
X145093771Y-57663711D02*
X145209690Y-57686768D01*
X145391679Y-57762150D01*
X145555464Y-57871588D01*
X145694752Y-58010876D01*
X145804190Y-58174661D01*
X145879572Y-58356650D01*
X145918001Y-58549848D01*
X145918001Y-58746830D01*
X145879572Y-58940028D01*
X145804190Y-59122017D01*
X145694752Y-59285802D01*
X145555464Y-59425090D01*
X145391679Y-59534528D01*
X145209690Y-59609910D01*
X145093771Y-59632967D01*
X145016494Y-59648339D01*
X144819508Y-59648339D01*
X144742231Y-59632967D01*
X144626312Y-59609910D01*
X144444323Y-59534528D01*
X144280538Y-59425090D01*
X144141250Y-59285802D01*
X144031812Y-59122017D01*
X143956430Y-58940028D01*
X143918001Y-58746830D01*
X143918001Y-58549848D01*
X143956430Y-58356650D01*
X144031812Y-58174661D01*
X144141250Y-58010876D01*
X144280538Y-57871588D01*
X144444323Y-57762150D01*
X144626312Y-57686768D01*
X144742231Y-57663711D01*
X144819508Y-57648339D01*
X145016494Y-57648339D01*
X145093771Y-57663711D01*
X145093771Y-57663711D01*
G37*
G36*
X139553771Y-57663711D02*
X139669690Y-57686768D01*
X139851679Y-57762150D01*
X140015464Y-57871588D01*
X140154752Y-58010876D01*
X140264190Y-58174661D01*
X140339572Y-58356650D01*
X140378001Y-58549848D01*
X140378001Y-58746830D01*
X140339572Y-58940028D01*
X140264190Y-59122017D01*
X140154752Y-59285802D01*
X140015464Y-59425090D01*
X139851679Y-59534528D01*
X139669690Y-59609910D01*
X139553771Y-59632967D01*
X139476494Y-59648339D01*
X139279508Y-59648339D01*
X139202231Y-59632967D01*
X139086312Y-59609910D01*
X138904323Y-59534528D01*
X138740538Y-59425090D01*
X138601250Y-59285802D01*
X138491812Y-59122017D01*
X138416430Y-58940028D01*
X138378001Y-58746830D01*
X138378001Y-58549848D01*
X138416430Y-58356650D01*
X138491812Y-58174661D01*
X138601250Y-58010876D01*
X138740538Y-57871588D01*
X138904323Y-57762150D01*
X139086312Y-57686768D01*
X139202231Y-57663711D01*
X139279508Y-57648339D01*
X139476494Y-57648339D01*
X139553771Y-57663711D01*
X139553771Y-57663711D01*
G37*
G36*
X142323771Y-57663711D02*
X142439690Y-57686768D01*
X142621679Y-57762150D01*
X142785464Y-57871588D01*
X142924752Y-58010876D01*
X143034190Y-58174661D01*
X143109572Y-58356650D01*
X143148001Y-58549848D01*
X143148001Y-58746830D01*
X143109572Y-58940028D01*
X143034190Y-59122017D01*
X142924752Y-59285802D01*
X142785464Y-59425090D01*
X142621679Y-59534528D01*
X142439690Y-59609910D01*
X142323771Y-59632967D01*
X142246494Y-59648339D01*
X142049508Y-59648339D01*
X141972231Y-59632967D01*
X141856312Y-59609910D01*
X141674323Y-59534528D01*
X141510538Y-59425090D01*
X141371250Y-59285802D01*
X141261812Y-59122017D01*
X141186430Y-58940028D01*
X141148001Y-58746830D01*
X141148001Y-58549848D01*
X141186430Y-58356650D01*
X141261812Y-58174661D01*
X141371250Y-58010876D01*
X141510538Y-57871588D01*
X141674323Y-57762150D01*
X141856312Y-57686768D01*
X141972231Y-57663711D01*
X142049508Y-57648339D01*
X142246494Y-57648339D01*
X142323771Y-57663711D01*
X142323771Y-57663711D01*
G37*
G36*
X136783771Y-57663711D02*
X136899690Y-57686768D01*
X137081679Y-57762150D01*
X137245464Y-57871588D01*
X137384752Y-58010876D01*
X137494190Y-58174661D01*
X137569572Y-58356650D01*
X137608001Y-58549848D01*
X137608001Y-58746830D01*
X137569572Y-58940028D01*
X137494190Y-59122017D01*
X137384752Y-59285802D01*
X137245464Y-59425090D01*
X137081679Y-59534528D01*
X136899690Y-59609910D01*
X136783771Y-59632967D01*
X136706494Y-59648339D01*
X136509508Y-59648339D01*
X136432231Y-59632967D01*
X136316312Y-59609910D01*
X136134323Y-59534528D01*
X135970538Y-59425090D01*
X135831250Y-59285802D01*
X135721812Y-59122017D01*
X135646430Y-58940028D01*
X135608001Y-58746830D01*
X135608001Y-58549848D01*
X135646430Y-58356650D01*
X135721812Y-58174661D01*
X135831250Y-58010876D01*
X135970538Y-57871588D01*
X136134323Y-57762150D01*
X136316312Y-57686768D01*
X136432231Y-57663711D01*
X136509508Y-57648339D01*
X136706494Y-57648339D01*
X136783771Y-57663711D01*
X136783771Y-57663711D01*
G37*
G36*
X150633771Y-57663711D02*
X150749690Y-57686768D01*
X150931679Y-57762150D01*
X151095464Y-57871588D01*
X151234752Y-58010876D01*
X151344190Y-58174661D01*
X151419572Y-58356650D01*
X151458001Y-58549848D01*
X151458001Y-58746830D01*
X151419572Y-58940028D01*
X151344190Y-59122017D01*
X151234752Y-59285802D01*
X151095464Y-59425090D01*
X150931679Y-59534528D01*
X150749690Y-59609910D01*
X150633771Y-59632967D01*
X150556494Y-59648339D01*
X150359508Y-59648339D01*
X150282231Y-59632967D01*
X150166312Y-59609910D01*
X149984323Y-59534528D01*
X149820538Y-59425090D01*
X149681250Y-59285802D01*
X149571812Y-59122017D01*
X149496430Y-58940028D01*
X149458001Y-58746830D01*
X149458001Y-58549848D01*
X149496430Y-58356650D01*
X149571812Y-58174661D01*
X149681250Y-58010876D01*
X149820538Y-57871588D01*
X149984323Y-57762150D01*
X150166312Y-57686768D01*
X150282231Y-57663711D01*
X150359508Y-57648339D01*
X150556494Y-57648339D01*
X150633771Y-57663711D01*
X150633771Y-57663711D01*
G37*
G36*
X153403771Y-57663711D02*
X153519690Y-57686768D01*
X153701679Y-57762150D01*
X153865464Y-57871588D01*
X154004752Y-58010876D01*
X154114190Y-58174661D01*
X154189572Y-58356650D01*
X154228001Y-58549848D01*
X154228001Y-58746830D01*
X154189572Y-58940028D01*
X154114190Y-59122017D01*
X154004752Y-59285802D01*
X153865464Y-59425090D01*
X153701679Y-59534528D01*
X153519690Y-59609910D01*
X153403771Y-59632967D01*
X153326494Y-59648339D01*
X153129508Y-59648339D01*
X153052231Y-59632967D01*
X152936312Y-59609910D01*
X152754323Y-59534528D01*
X152590538Y-59425090D01*
X152451250Y-59285802D01*
X152341812Y-59122017D01*
X152266430Y-58940028D01*
X152228001Y-58746830D01*
X152228001Y-58549848D01*
X152266430Y-58356650D01*
X152341812Y-58174661D01*
X152451250Y-58010876D01*
X152590538Y-57871588D01*
X152754323Y-57762150D01*
X152936312Y-57686768D01*
X153052231Y-57663711D01*
X153129508Y-57648339D01*
X153326494Y-57648339D01*
X153403771Y-57663711D01*
X153403771Y-57663711D01*
G37*
G36*
X156173771Y-57663711D02*
X156289690Y-57686768D01*
X156471679Y-57762150D01*
X156635464Y-57871588D01*
X156774752Y-58010876D01*
X156884190Y-58174661D01*
X156959572Y-58356650D01*
X156998001Y-58549848D01*
X156998001Y-58746830D01*
X156959572Y-58940028D01*
X156884190Y-59122017D01*
X156774752Y-59285802D01*
X156635464Y-59425090D01*
X156471679Y-59534528D01*
X156289690Y-59609910D01*
X156173771Y-59632967D01*
X156096494Y-59648339D01*
X155899508Y-59648339D01*
X155822231Y-59632967D01*
X155706312Y-59609910D01*
X155524323Y-59534528D01*
X155360538Y-59425090D01*
X155221250Y-59285802D01*
X155111812Y-59122017D01*
X155036430Y-58940028D01*
X154998001Y-58746830D01*
X154998001Y-58549848D01*
X155036430Y-58356650D01*
X155111812Y-58174661D01*
X155221250Y-58010876D01*
X155360538Y-57871588D01*
X155524323Y-57762150D01*
X155706312Y-57686768D01*
X155822231Y-57663711D01*
X155899508Y-57648339D01*
X156096494Y-57648339D01*
X156173771Y-57663711D01*
X156173771Y-57663711D01*
G37*
G36*
X161713771Y-57663711D02*
X161829690Y-57686768D01*
X162011679Y-57762150D01*
X162175464Y-57871588D01*
X162314752Y-58010876D01*
X162424190Y-58174661D01*
X162499572Y-58356650D01*
X162538001Y-58549848D01*
X162538001Y-58746830D01*
X162499572Y-58940028D01*
X162424190Y-59122017D01*
X162314752Y-59285802D01*
X162175464Y-59425090D01*
X162011679Y-59534528D01*
X161829690Y-59609910D01*
X161713771Y-59632967D01*
X161636494Y-59648339D01*
X161439508Y-59648339D01*
X161362231Y-59632967D01*
X161246312Y-59609910D01*
X161064323Y-59534528D01*
X160900538Y-59425090D01*
X160761250Y-59285802D01*
X160651812Y-59122017D01*
X160576430Y-58940028D01*
X160538001Y-58746830D01*
X160538001Y-58549848D01*
X160576430Y-58356650D01*
X160651812Y-58174661D01*
X160761250Y-58010876D01*
X160900538Y-57871588D01*
X161064323Y-57762150D01*
X161246312Y-57686768D01*
X161362231Y-57663711D01*
X161439508Y-57648339D01*
X161636494Y-57648339D01*
X161713771Y-57663711D01*
X161713771Y-57663711D01*
G37*
G36*
X164483771Y-57663711D02*
X164599690Y-57686768D01*
X164781679Y-57762150D01*
X164945464Y-57871588D01*
X165084752Y-58010876D01*
X165194190Y-58174661D01*
X165269572Y-58356650D01*
X165308001Y-58549848D01*
X165308001Y-58746830D01*
X165269572Y-58940028D01*
X165194190Y-59122017D01*
X165084752Y-59285802D01*
X164945464Y-59425090D01*
X164781679Y-59534528D01*
X164599690Y-59609910D01*
X164483771Y-59632967D01*
X164406494Y-59648339D01*
X164209508Y-59648339D01*
X164132231Y-59632967D01*
X164016312Y-59609910D01*
X163834323Y-59534528D01*
X163670538Y-59425090D01*
X163531250Y-59285802D01*
X163421812Y-59122017D01*
X163346430Y-58940028D01*
X163308001Y-58746830D01*
X163308001Y-58549848D01*
X163346430Y-58356650D01*
X163421812Y-58174661D01*
X163531250Y-58010876D01*
X163670538Y-57871588D01*
X163834323Y-57762150D01*
X164016312Y-57686768D01*
X164132231Y-57663711D01*
X164209508Y-57648339D01*
X164406494Y-57648339D01*
X164483771Y-57663711D01*
X164483771Y-57663711D01*
G37*
G36*
X167253771Y-57663711D02*
X167369690Y-57686768D01*
X167551679Y-57762150D01*
X167715464Y-57871588D01*
X167854752Y-58010876D01*
X167964190Y-58174661D01*
X168039572Y-58356650D01*
X168078001Y-58549848D01*
X168078001Y-58746830D01*
X168039572Y-58940028D01*
X167964190Y-59122017D01*
X167854752Y-59285802D01*
X167715464Y-59425090D01*
X167551679Y-59534528D01*
X167369690Y-59609910D01*
X167253771Y-59632967D01*
X167176494Y-59648339D01*
X166979508Y-59648339D01*
X166902231Y-59632967D01*
X166786312Y-59609910D01*
X166604323Y-59534528D01*
X166440538Y-59425090D01*
X166301250Y-59285802D01*
X166191812Y-59122017D01*
X166116430Y-58940028D01*
X166078001Y-58746830D01*
X166078001Y-58549848D01*
X166116430Y-58356650D01*
X166191812Y-58174661D01*
X166301250Y-58010876D01*
X166440538Y-57871588D01*
X166604323Y-57762150D01*
X166786312Y-57686768D01*
X166902231Y-57663711D01*
X166979508Y-57648339D01*
X167176494Y-57648339D01*
X167253771Y-57663711D01*
X167253771Y-57663711D01*
G37*
G36*
X147863771Y-57663711D02*
X147979690Y-57686768D01*
X148161679Y-57762150D01*
X148325464Y-57871588D01*
X148464752Y-58010876D01*
X148574190Y-58174661D01*
X148649572Y-58356650D01*
X148688001Y-58549848D01*
X148688001Y-58746830D01*
X148649572Y-58940028D01*
X148574190Y-59122017D01*
X148464752Y-59285802D01*
X148325464Y-59425090D01*
X148161679Y-59534528D01*
X147979690Y-59609910D01*
X147863771Y-59632967D01*
X147786494Y-59648339D01*
X147589508Y-59648339D01*
X147512231Y-59632967D01*
X147396312Y-59609910D01*
X147214323Y-59534528D01*
X147050538Y-59425090D01*
X146911250Y-59285802D01*
X146801812Y-59122017D01*
X146726430Y-58940028D01*
X146688001Y-58746830D01*
X146688001Y-58549848D01*
X146726430Y-58356650D01*
X146801812Y-58174661D01*
X146911250Y-58010876D01*
X147050538Y-57871588D01*
X147214323Y-57762150D01*
X147396312Y-57686768D01*
X147512231Y-57663711D01*
X147589508Y-57648339D01*
X147786494Y-57648339D01*
X147863771Y-57663711D01*
X147863771Y-57663711D01*
G37*
G36*
X192290835Y-49411618D02*
X192327120Y-49417000D01*
X193153000Y-49417000D01*
X193153000Y-51167000D01*
X191403000Y-51167000D01*
X191403000Y-49417000D01*
X192228880Y-49417000D01*
X192253266Y-49414598D01*
X192276715Y-49407485D01*
X192278524Y-49406518D01*
X192290835Y-49411618D01*
X192290835Y-49411618D01*
G37*
G36*
X192290835Y-47411618D02*
X192314868Y-47416398D01*
X192367664Y-47421598D01*
X192449530Y-47429661D01*
X192528801Y-47453708D01*
X192614469Y-47479695D01*
X192665137Y-47506778D01*
X192766476Y-47560944D01*
X192899712Y-47670288D01*
X193009056Y-47803524D01*
X193063222Y-47904863D01*
X193090305Y-47955531D01*
X193090305Y-47955532D01*
X193140339Y-48120470D01*
X193157233Y-48292000D01*
X193140339Y-48463530D01*
X193106983Y-48573489D01*
X193090305Y-48628469D01*
X193063222Y-48679137D01*
X193009056Y-48780476D01*
X192899712Y-48913712D01*
X192766476Y-49023056D01*
X192665137Y-49077222D01*
X192614469Y-49104305D01*
X192559489Y-49120983D01*
X192449530Y-49154339D01*
X192367664Y-49162402D01*
X192314868Y-49167602D01*
X192290834Y-49172383D01*
X192278524Y-49177482D01*
X192276715Y-49176515D01*
X192241132Y-49167602D01*
X192188336Y-49162402D01*
X192106470Y-49154339D01*
X191996511Y-49120983D01*
X191941531Y-49104305D01*
X191890863Y-49077222D01*
X191789524Y-49023056D01*
X191656288Y-48913712D01*
X191546944Y-48780476D01*
X191492778Y-48679137D01*
X191465695Y-48628469D01*
X191449017Y-48573489D01*
X191415661Y-48463530D01*
X191398767Y-48292000D01*
X191415661Y-48120470D01*
X191465695Y-47955532D01*
X191465695Y-47955531D01*
X191492778Y-47904863D01*
X191546944Y-47803524D01*
X191656288Y-47670288D01*
X191789524Y-47560944D01*
X191890863Y-47506778D01*
X191941531Y-47479695D01*
X192027199Y-47453708D01*
X192106470Y-47429661D01*
X192188336Y-47421598D01*
X192241132Y-47416398D01*
X192265166Y-47411617D01*
X192278000Y-47406301D01*
X192290835Y-47411618D01*
X192290835Y-47411618D01*
G37*
G36*
X114886549Y-43560944D02*
X114951050Y-43573774D01*
X115357249Y-43742027D01*
X115676780Y-43955531D01*
X115722820Y-43986294D01*
X116033706Y-44297180D01*
X116033708Y-44297183D01*
X116144858Y-44463530D01*
X116277974Y-44662753D01*
X116446226Y-45068950D01*
X116532000Y-45500166D01*
X116532000Y-45939834D01*
X116528877Y-45955532D01*
X116446226Y-46371050D01*
X116277973Y-46777249D01*
X116186791Y-46913712D01*
X116033706Y-47142820D01*
X115722820Y-47453706D01*
X115722817Y-47453708D01*
X115357249Y-47697973D01*
X115357248Y-47697974D01*
X115357247Y-47697974D01*
X114951050Y-47866226D01*
X114519834Y-47952000D01*
X114080166Y-47952000D01*
X113648950Y-47866226D01*
X113242753Y-47697974D01*
X113242752Y-47697974D01*
X113242751Y-47697973D01*
X112877183Y-47453708D01*
X112877180Y-47453706D01*
X112566294Y-47142820D01*
X112413209Y-46913712D01*
X112322027Y-46777249D01*
X112153774Y-46371050D01*
X112071123Y-45955532D01*
X112068000Y-45939834D01*
X112068000Y-45500166D01*
X112153774Y-45068950D01*
X112322026Y-44662753D01*
X112455143Y-44463530D01*
X112566292Y-44297183D01*
X112566294Y-44297180D01*
X112877180Y-43986294D01*
X112923220Y-43955531D01*
X113242751Y-43742027D01*
X113648950Y-43573774D01*
X113713451Y-43560944D01*
X114080166Y-43488000D01*
X114519834Y-43488000D01*
X114886549Y-43560944D01*
X114886549Y-43560944D01*
G37*
G36*
X192290835Y-45411618D02*
X192314868Y-45416398D01*
X192367664Y-45421598D01*
X192449530Y-45429661D01*
X192559489Y-45463017D01*
X192614469Y-45479695D01*
X192652767Y-45500166D01*
X192766476Y-45560944D01*
X192899712Y-45670288D01*
X193009056Y-45803524D01*
X193063222Y-45904863D01*
X193090305Y-45955531D01*
X193090305Y-45955532D01*
X193140339Y-46120470D01*
X193157233Y-46292000D01*
X193140339Y-46463530D01*
X193106983Y-46573489D01*
X193090305Y-46628469D01*
X193063222Y-46679137D01*
X193009056Y-46780476D01*
X192899712Y-46913712D01*
X192766476Y-47023056D01*
X192665137Y-47077222D01*
X192614469Y-47104305D01*
X192559489Y-47120983D01*
X192449530Y-47154339D01*
X192367664Y-47162402D01*
X192314868Y-47167602D01*
X192290834Y-47172383D01*
X192278000Y-47177699D01*
X192265165Y-47172382D01*
X192241132Y-47167602D01*
X192188336Y-47162402D01*
X192106470Y-47154339D01*
X191996511Y-47120983D01*
X191941531Y-47104305D01*
X191890863Y-47077222D01*
X191789524Y-47023056D01*
X191656288Y-46913712D01*
X191546944Y-46780476D01*
X191492778Y-46679137D01*
X191465695Y-46628469D01*
X191449017Y-46573489D01*
X191415661Y-46463530D01*
X191398767Y-46292000D01*
X191415661Y-46120470D01*
X191465695Y-45955532D01*
X191465695Y-45955531D01*
X191492778Y-45904863D01*
X191546944Y-45803524D01*
X191656288Y-45670288D01*
X191789524Y-45560944D01*
X191903233Y-45500166D01*
X191941531Y-45479695D01*
X191996511Y-45463017D01*
X192106470Y-45429661D01*
X192188336Y-45421598D01*
X192241132Y-45416398D01*
X192265166Y-45411617D01*
X192278000Y-45406301D01*
X192290835Y-45411618D01*
X192290835Y-45411618D01*
G37*
G36*
X192363829Y-43421220D02*
X192449530Y-43429661D01*
X192559489Y-43463017D01*
X192614469Y-43479695D01*
X192630006Y-43488000D01*
X192766476Y-43560944D01*
X192899712Y-43670288D01*
X193009056Y-43803524D01*
X193063222Y-43904863D01*
X193090305Y-43955531D01*
X193090305Y-43955532D01*
X193140339Y-44120470D01*
X193157233Y-44292000D01*
X193140339Y-44463530D01*
X193106983Y-44573489D01*
X193090305Y-44628469D01*
X193071981Y-44662751D01*
X193009056Y-44780476D01*
X192899712Y-44913712D01*
X192766476Y-45023056D01*
X192680613Y-45068950D01*
X192614469Y-45104305D01*
X192559489Y-45120983D01*
X192449530Y-45154339D01*
X192367664Y-45162402D01*
X192314868Y-45167602D01*
X192290834Y-45172383D01*
X192278000Y-45177699D01*
X192265165Y-45172382D01*
X192241132Y-45167602D01*
X192188336Y-45162402D01*
X192106470Y-45154339D01*
X191996511Y-45120983D01*
X191941531Y-45104305D01*
X191875387Y-45068950D01*
X191789524Y-45023056D01*
X191656288Y-44913712D01*
X191546944Y-44780476D01*
X191484019Y-44662751D01*
X191465695Y-44628469D01*
X191449017Y-44573489D01*
X191415661Y-44463530D01*
X191398767Y-44292000D01*
X191415661Y-44120470D01*
X191465695Y-43955532D01*
X191465695Y-43955531D01*
X191492778Y-43904863D01*
X191546944Y-43803524D01*
X191656288Y-43670288D01*
X191789524Y-43560944D01*
X191925994Y-43488000D01*
X191941531Y-43479695D01*
X191996511Y-43463017D01*
X192106470Y-43429661D01*
X192192171Y-43421220D01*
X192235020Y-43417000D01*
X192320980Y-43417000D01*
X192363829Y-43421220D01*
X192363829Y-43421220D01*
G37*
M02*
