G04 #@! TF.GenerationSoftware,KiCad,Pcbnew,5.0.1-33cea8e~68~ubuntu16.04.1*
G04 #@! TF.CreationDate,2018-11-08T21:42:09-02:00*
G04 #@! TF.ProjectId,Placa do elevador 2 - macho,506C61636120646F20656C657661646F,rev?*
G04 #@! TF.SameCoordinates,Original*
G04 #@! TF.FileFunction,Legend,Bot*
G04 #@! TF.FilePolarity,Positive*
%FSLAX46Y46*%
G04 Gerber Fmt 4.6, Leading zero omitted, Abs format (unit mm)*
G04 Created by KiCad (PCBNEW 5.0.1-33cea8e~68~ubuntu16.04.1) date Qui 08 Nov 2018 21:42:09 -02*
%MOMM*%
%LPD*%
G01*
G04 APERTURE LIST*
%ADD10C,0.300000*%
%ADD11C,0.150000*%
G04 APERTURE END LIST*
D10*
X214249428Y-65596285D02*
X214249428Y-66596285D01*
X212749428Y-65953428D01*
X214249428Y-67453428D02*
X214249428Y-67596285D01*
X214178000Y-67739142D01*
X214106571Y-67810571D01*
X213963714Y-67882000D01*
X213678000Y-67953428D01*
X213320857Y-67953428D01*
X213035142Y-67882000D01*
X212892285Y-67810571D01*
X212820857Y-67739142D01*
X212749428Y-67596285D01*
X212749428Y-67453428D01*
X212820857Y-67310571D01*
X212892285Y-67239142D01*
X213035142Y-67167714D01*
X213320857Y-67096285D01*
X213678000Y-67096285D01*
X213963714Y-67167714D01*
X214106571Y-67239142D01*
X214178000Y-67310571D01*
X214249428Y-67453428D01*
X212892285Y-68596285D02*
X212820857Y-68667714D01*
X212749428Y-68596285D01*
X212820857Y-68524857D01*
X212892285Y-68596285D01*
X212749428Y-68596285D01*
X212749428Y-70096285D02*
X212749428Y-69239142D01*
X212749428Y-69667714D02*
X214249428Y-69667714D01*
X214035142Y-69524857D01*
X213892285Y-69382000D01*
X213820857Y-69239142D01*
X214249428Y-71024857D02*
X214249428Y-71167714D01*
X214178000Y-71310571D01*
X214106571Y-71382000D01*
X213963714Y-71453428D01*
X213678000Y-71524857D01*
X213320857Y-71524857D01*
X213035142Y-71453428D01*
X212892285Y-71382000D01*
X212820857Y-71310571D01*
X212749428Y-71167714D01*
X212749428Y-71024857D01*
X212820857Y-70882000D01*
X212892285Y-70810571D01*
X213035142Y-70739142D01*
X213320857Y-70667714D01*
X213678000Y-70667714D01*
X213963714Y-70739142D01*
X214106571Y-70810571D01*
X214178000Y-70882000D01*
X214249428Y-71024857D01*
X213749428Y-72810571D02*
X212749428Y-72810571D01*
X214320857Y-72453428D02*
X213249428Y-72096285D01*
X213249428Y-73024857D01*
X212749428Y-74739142D02*
X213749428Y-74739142D01*
X213606571Y-74739142D02*
X213678000Y-74810571D01*
X213749428Y-74953428D01*
X213749428Y-75167714D01*
X213678000Y-75310571D01*
X213535142Y-75382000D01*
X212749428Y-75382000D01*
X213535142Y-75382000D02*
X213678000Y-75453428D01*
X213749428Y-75596285D01*
X213749428Y-75810571D01*
X213678000Y-75953428D01*
X213535142Y-76024857D01*
X212749428Y-76024857D01*
X212749428Y-76739142D02*
X213749428Y-76739142D01*
X213606571Y-76739142D02*
X213678000Y-76810571D01*
X213749428Y-76953428D01*
X213749428Y-77167714D01*
X213678000Y-77310571D01*
X213535142Y-77382000D01*
X212749428Y-77382000D01*
X213535142Y-77382000D02*
X213678000Y-77453428D01*
X213749428Y-77596285D01*
X213749428Y-77810571D01*
X213678000Y-77953428D01*
X213535142Y-78024857D01*
X212749428Y-78024857D01*
X211328000Y-36830000D02*
X211328000Y-106934000D01*
X202946000Y-36830000D02*
X211914421Y-36830000D01*
X202946000Y-106934000D02*
X211914421Y-106934000D01*
X211328000Y-106934000D02*
X210741579Y-105807496D01*
X211328000Y-106934000D02*
X211914421Y-105807496D01*
X211328000Y-36830000D02*
X210741579Y-37956504D01*
X211328000Y-36830000D02*
X211914421Y-37956504D01*
X145566571Y-121142571D02*
X144709428Y-121142571D01*
X145138000Y-121142571D02*
X145138000Y-119642571D01*
X144995142Y-119856857D01*
X144852285Y-119999714D01*
X144709428Y-120071142D01*
X146495142Y-119642571D02*
X146638000Y-119642571D01*
X146780857Y-119714000D01*
X146852285Y-119785428D01*
X146923714Y-119928285D01*
X146995142Y-120214000D01*
X146995142Y-120571142D01*
X146923714Y-120856857D01*
X146852285Y-120999714D01*
X146780857Y-121071142D01*
X146638000Y-121142571D01*
X146495142Y-121142571D01*
X146352285Y-121071142D01*
X146280857Y-120999714D01*
X146209428Y-120856857D01*
X146138000Y-120571142D01*
X146138000Y-120214000D01*
X146209428Y-119928285D01*
X146280857Y-119785428D01*
X146352285Y-119714000D01*
X146495142Y-119642571D01*
X147566571Y-119785428D02*
X147638000Y-119714000D01*
X147780857Y-119642571D01*
X148138000Y-119642571D01*
X148280857Y-119714000D01*
X148352285Y-119785428D01*
X148423714Y-119928285D01*
X148423714Y-120071142D01*
X148352285Y-120285428D01*
X147495142Y-121142571D01*
X148423714Y-121142571D01*
X149066571Y-120999714D02*
X149138000Y-121071142D01*
X149066571Y-121142571D01*
X148995142Y-121071142D01*
X149066571Y-120999714D01*
X149066571Y-121142571D01*
X150423714Y-119642571D02*
X150138000Y-119642571D01*
X149995142Y-119714000D01*
X149923714Y-119785428D01*
X149780857Y-119999714D01*
X149709428Y-120285428D01*
X149709428Y-120856857D01*
X149780857Y-120999714D01*
X149852285Y-121071142D01*
X149995142Y-121142571D01*
X150280857Y-121142571D01*
X150423714Y-121071142D01*
X150495142Y-120999714D01*
X150566571Y-120856857D01*
X150566571Y-120499714D01*
X150495142Y-120356857D01*
X150423714Y-120285428D01*
X150280857Y-120214000D01*
X149995142Y-120214000D01*
X149852285Y-120285428D01*
X149780857Y-120356857D01*
X149709428Y-120499714D01*
X151995142Y-121142571D02*
X151138000Y-121142571D01*
X151566571Y-121142571D02*
X151566571Y-119642571D01*
X151423714Y-119856857D01*
X151280857Y-119999714D01*
X151138000Y-120071142D01*
X153280857Y-119642571D02*
X152995142Y-119642571D01*
X152852285Y-119714000D01*
X152780857Y-119785428D01*
X152638000Y-119999714D01*
X152566571Y-120285428D01*
X152566571Y-120856857D01*
X152638000Y-120999714D01*
X152709428Y-121071142D01*
X152852285Y-121142571D01*
X153138000Y-121142571D01*
X153280857Y-121071142D01*
X153352285Y-120999714D01*
X153423714Y-120856857D01*
X153423714Y-120499714D01*
X153352285Y-120356857D01*
X153280857Y-120285428D01*
X153138000Y-120214000D01*
X152852285Y-120214000D01*
X152709428Y-120285428D01*
X152638000Y-120356857D01*
X152566571Y-120499714D01*
X155209428Y-121142571D02*
X155209428Y-120142571D01*
X155209428Y-120285428D02*
X155280857Y-120214000D01*
X155423714Y-120142571D01*
X155638000Y-120142571D01*
X155780857Y-120214000D01*
X155852285Y-120356857D01*
X155852285Y-121142571D01*
X155852285Y-120356857D02*
X155923714Y-120214000D01*
X156066571Y-120142571D01*
X156280857Y-120142571D01*
X156423714Y-120214000D01*
X156495142Y-120356857D01*
X156495142Y-121142571D01*
X157209428Y-121142571D02*
X157209428Y-120142571D01*
X157209428Y-120285428D02*
X157280857Y-120214000D01*
X157423714Y-120142571D01*
X157638000Y-120142571D01*
X157780857Y-120214000D01*
X157852285Y-120356857D01*
X157852285Y-121142571D01*
X157852285Y-120356857D02*
X157923714Y-120214000D01*
X158066571Y-120142571D01*
X158280857Y-120142571D01*
X158423714Y-120214000D01*
X158495142Y-120356857D01*
X158495142Y-121142571D01*
X100330000Y-118364000D02*
X202946000Y-118364000D01*
X100330000Y-106934000D02*
X100330000Y-118950421D01*
X202946000Y-106934000D02*
X202946000Y-118950421D01*
X202946000Y-118364000D02*
X201819496Y-118950421D01*
X202946000Y-118364000D02*
X201819496Y-117777579D01*
X100330000Y-118364000D02*
X101456504Y-118950421D01*
X100330000Y-118364000D02*
X101456504Y-117777579D01*
D11*
X100330000Y-106934000D02*
X202946000Y-106934000D01*
X100330000Y-36830000D02*
X100330000Y-106934000D01*
X202946000Y-94742000D02*
X202946000Y-106934000D01*
X202946000Y-36830000D02*
X202946000Y-94742000D01*
X100330000Y-36830000D02*
X202946000Y-36830000D01*
M02*
