G04 #@! TF.GenerationSoftware,KiCad,Pcbnew,5.0.1-33cea8e~68~ubuntu16.04.1*
G04 #@! TF.CreationDate,2018-11-08T21:42:09-02:00*
G04 #@! TF.ProjectId,Placa do elevador 2 - macho,506C61636120646F20656C657661646F,rev?*
G04 #@! TF.SameCoordinates,Original*
G04 #@! TF.FileFunction,Legend,Top*
G04 #@! TF.FilePolarity,Positive*
%FSLAX46Y46*%
G04 Gerber Fmt 4.6, Leading zero omitted, Abs format (unit mm)*
G04 Created by KiCad (PCBNEW 5.0.1-33cea8e~68~ubuntu16.04.1) date Qui 08 Nov 2018 21:42:09 -02*
%MOMM*%
%LPD*%
G01*
G04 APERTURE LIST*
%ADD10C,0.150000*%
%ADD11C,0.120000*%
G04 APERTURE END LIST*
D10*
X100330000Y-106934000D02*
X202946000Y-106934000D01*
X100330000Y-36830000D02*
X100330000Y-106934000D01*
X202946000Y-94742000D02*
X202946000Y-106934000D01*
X202946000Y-36830000D02*
X202946000Y-94742000D01*
X100330000Y-36830000D02*
X202946000Y-36830000D01*
D11*
G04 #@! TO.C,REF\002A\002A*
X116586000Y-45720000D02*
G75*
G03X116586000Y-45720000I-2286000J0D01*
G01*
X116586000Y-93980000D02*
G75*
G03X116586000Y-93980000I-2286000J0D01*
G01*
G04 #@! TO.C,J1*
X168463001Y-63809664D02*
X168713001Y-64242677D01*
X168213001Y-64242677D02*
X168463001Y-63809664D01*
X168713001Y-64242677D02*
X168213001Y-64242677D01*
X125233001Y-63348339D02*
X125233001Y-48808339D01*
X178453001Y-63348339D02*
X125233001Y-63348339D01*
X178453001Y-48808339D02*
X178453001Y-63348339D01*
G04 #@! TO.C,J2*
X113538000Y-71076000D02*
X114598000Y-71076000D01*
X114598000Y-71076000D02*
X114598000Y-72136000D01*
X114598000Y-73136000D02*
X114598000Y-79196000D01*
X112478000Y-79196000D02*
X114598000Y-79196000D01*
X112478000Y-73136000D02*
X112478000Y-79196000D01*
X112478000Y-73136000D02*
X114598000Y-73136000D01*
G04 #@! TO.C,J3*
X191306000Y-81550000D02*
X189186000Y-81550000D01*
X191306000Y-81550000D02*
X191306000Y-75490000D01*
X191306000Y-75490000D02*
X189186000Y-75490000D01*
X189186000Y-81550000D02*
X189186000Y-75490000D01*
X189186000Y-83610000D02*
X189186000Y-82550000D01*
X190246000Y-83610000D02*
X189186000Y-83610000D01*
G04 #@! TO.C,J4*
X171684000Y-81534000D02*
X171684000Y-82594000D01*
X171684000Y-82594000D02*
X170624000Y-82594000D01*
X169624000Y-82594000D02*
X163564000Y-82594000D01*
X163564000Y-80474000D02*
X163564000Y-82594000D01*
X169624000Y-80474000D02*
X163564000Y-80474000D01*
X169624000Y-80474000D02*
X169624000Y-82594000D01*
G04 #@! TO.C,J5*
X193338000Y-49292000D02*
X191218000Y-49292000D01*
X193338000Y-49292000D02*
X193338000Y-43232000D01*
X193338000Y-43232000D02*
X191218000Y-43232000D01*
X191218000Y-49292000D02*
X191218000Y-43232000D01*
X191218000Y-51352000D02*
X191218000Y-50292000D01*
X192278000Y-51352000D02*
X191218000Y-51352000D01*
G04 #@! TO.C,J6*
X141712000Y-81280000D02*
X141712000Y-82340000D01*
X141712000Y-82340000D02*
X140652000Y-82340000D01*
X139652000Y-82340000D02*
X133592000Y-82340000D01*
X133592000Y-80220000D02*
X133592000Y-82340000D01*
X139652000Y-80220000D02*
X133592000Y-80220000D01*
X139652000Y-80220000D02*
X139652000Y-82340000D01*
G04 #@! TO.C,J7*
X152416000Y-80220000D02*
X152416000Y-82340000D01*
X152416000Y-80220000D02*
X146356000Y-80220000D01*
X146356000Y-80220000D02*
X146356000Y-82340000D01*
X152416000Y-82340000D02*
X146356000Y-82340000D01*
X154476000Y-82340000D02*
X153416000Y-82340000D01*
X154476000Y-81280000D02*
X154476000Y-82340000D01*
G04 #@! TO.C,REF\002A\002A*
X192786000Y-93980000D02*
G75*
G03X192786000Y-93980000I-2286000J0D01*
G01*
G04 #@! TD*
G04 #@! TO.C,REF\002A\002A*
D10*
X112966666Y-43124380D02*
X112633333Y-42648190D01*
X112395238Y-43124380D02*
X112395238Y-42124380D01*
X112776190Y-42124380D01*
X112871428Y-42172000D01*
X112919047Y-42219619D01*
X112966666Y-42314857D01*
X112966666Y-42457714D01*
X112919047Y-42552952D01*
X112871428Y-42600571D01*
X112776190Y-42648190D01*
X112395238Y-42648190D01*
X113395238Y-42600571D02*
X113728571Y-42600571D01*
X113871428Y-43124380D02*
X113395238Y-43124380D01*
X113395238Y-42124380D01*
X113871428Y-42124380D01*
X114633333Y-42600571D02*
X114300000Y-42600571D01*
X114300000Y-43124380D02*
X114300000Y-42124380D01*
X114776190Y-42124380D01*
X115300000Y-42124380D02*
X115300000Y-42362476D01*
X115061904Y-42267238D02*
X115300000Y-42362476D01*
X115538095Y-42267238D01*
X115157142Y-42552952D02*
X115300000Y-42362476D01*
X115442857Y-42552952D01*
X116061904Y-42124380D02*
X116061904Y-42362476D01*
X115823809Y-42267238D02*
X116061904Y-42362476D01*
X116300000Y-42267238D01*
X115919047Y-42552952D02*
X116061904Y-42362476D01*
X116204761Y-42552952D01*
X112966666Y-91384380D02*
X112633333Y-90908190D01*
X112395238Y-91384380D02*
X112395238Y-90384380D01*
X112776190Y-90384380D01*
X112871428Y-90432000D01*
X112919047Y-90479619D01*
X112966666Y-90574857D01*
X112966666Y-90717714D01*
X112919047Y-90812952D01*
X112871428Y-90860571D01*
X112776190Y-90908190D01*
X112395238Y-90908190D01*
X113395238Y-90860571D02*
X113728571Y-90860571D01*
X113871428Y-91384380D02*
X113395238Y-91384380D01*
X113395238Y-90384380D01*
X113871428Y-90384380D01*
X114633333Y-90860571D02*
X114300000Y-90860571D01*
X114300000Y-91384380D02*
X114300000Y-90384380D01*
X114776190Y-90384380D01*
X115300000Y-90384380D02*
X115300000Y-90622476D01*
X115061904Y-90527238D02*
X115300000Y-90622476D01*
X115538095Y-90527238D01*
X115157142Y-90812952D02*
X115300000Y-90622476D01*
X115442857Y-90812952D01*
X116061904Y-90384380D02*
X116061904Y-90622476D01*
X115823809Y-90527238D02*
X116061904Y-90622476D01*
X116300000Y-90527238D01*
X115919047Y-90812952D02*
X116061904Y-90622476D01*
X116204761Y-90812952D01*
G04 #@! TO.C,J1*
X151509667Y-63740719D02*
X151509667Y-64455005D01*
X151462048Y-64597862D01*
X151366810Y-64693100D01*
X151223953Y-64740719D01*
X151128715Y-64740719D01*
X152509667Y-64740719D02*
X151938239Y-64740719D01*
X152223953Y-64740719D02*
X152223953Y-63740719D01*
X152128715Y-63883577D01*
X152033477Y-63978815D01*
X151938239Y-64026434D01*
G04 #@! TO.C,J2*
X113204666Y-69088380D02*
X113204666Y-69802666D01*
X113157047Y-69945523D01*
X113061809Y-70040761D01*
X112918952Y-70088380D01*
X112823714Y-70088380D01*
X113633238Y-69183619D02*
X113680857Y-69136000D01*
X113776095Y-69088380D01*
X114014190Y-69088380D01*
X114109428Y-69136000D01*
X114157047Y-69183619D01*
X114204666Y-69278857D01*
X114204666Y-69374095D01*
X114157047Y-69516952D01*
X113585619Y-70088380D01*
X114204666Y-70088380D01*
G04 #@! TO.C,J3*
X189912666Y-84502380D02*
X189912666Y-85216666D01*
X189865047Y-85359523D01*
X189769809Y-85454761D01*
X189626952Y-85502380D01*
X189531714Y-85502380D01*
X190293619Y-84502380D02*
X190912666Y-84502380D01*
X190579333Y-84883333D01*
X190722190Y-84883333D01*
X190817428Y-84930952D01*
X190865047Y-84978571D01*
X190912666Y-85073809D01*
X190912666Y-85311904D01*
X190865047Y-85407142D01*
X190817428Y-85454761D01*
X190722190Y-85502380D01*
X190436476Y-85502380D01*
X190341238Y-85454761D01*
X190293619Y-85407142D01*
G04 #@! TO.C,J4*
X172576380Y-81867333D02*
X173290666Y-81867333D01*
X173433523Y-81914952D01*
X173528761Y-82010190D01*
X173576380Y-82153047D01*
X173576380Y-82248285D01*
X172909714Y-80962571D02*
X173576380Y-80962571D01*
X172528761Y-81200666D02*
X173243047Y-81438761D01*
X173243047Y-80819714D01*
G04 #@! TO.C,J5*
X191944666Y-52244380D02*
X191944666Y-52958666D01*
X191897047Y-53101523D01*
X191801809Y-53196761D01*
X191658952Y-53244380D01*
X191563714Y-53244380D01*
X192897047Y-52244380D02*
X192420857Y-52244380D01*
X192373238Y-52720571D01*
X192420857Y-52672952D01*
X192516095Y-52625333D01*
X192754190Y-52625333D01*
X192849428Y-52672952D01*
X192897047Y-52720571D01*
X192944666Y-52815809D01*
X192944666Y-53053904D01*
X192897047Y-53149142D01*
X192849428Y-53196761D01*
X192754190Y-53244380D01*
X192516095Y-53244380D01*
X192420857Y-53196761D01*
X192373238Y-53149142D01*
G04 #@! TO.C,J6*
X142604380Y-81613333D02*
X143318666Y-81613333D01*
X143461523Y-81660952D01*
X143556761Y-81756190D01*
X143604380Y-81899047D01*
X143604380Y-81994285D01*
X142604380Y-80708571D02*
X142604380Y-80899047D01*
X142652000Y-80994285D01*
X142699619Y-81041904D01*
X142842476Y-81137142D01*
X143032952Y-81184761D01*
X143413904Y-81184761D01*
X143509142Y-81137142D01*
X143556761Y-81089523D01*
X143604380Y-80994285D01*
X143604380Y-80803809D01*
X143556761Y-80708571D01*
X143509142Y-80660952D01*
X143413904Y-80613333D01*
X143175809Y-80613333D01*
X143080571Y-80660952D01*
X143032952Y-80708571D01*
X142985333Y-80803809D01*
X142985333Y-80994285D01*
X143032952Y-81089523D01*
X143080571Y-81137142D01*
X143175809Y-81184761D01*
G04 #@! TO.C,J7*
X155368380Y-81613333D02*
X156082666Y-81613333D01*
X156225523Y-81660952D01*
X156320761Y-81756190D01*
X156368380Y-81899047D01*
X156368380Y-81994285D01*
X155368380Y-81232380D02*
X155368380Y-80565714D01*
X156368380Y-80994285D01*
G04 #@! TO.C,REF\002A\002A*
X189166666Y-91384380D02*
X188833333Y-90908190D01*
X188595238Y-91384380D02*
X188595238Y-90384380D01*
X188976190Y-90384380D01*
X189071428Y-90432000D01*
X189119047Y-90479619D01*
X189166666Y-90574857D01*
X189166666Y-90717714D01*
X189119047Y-90812952D01*
X189071428Y-90860571D01*
X188976190Y-90908190D01*
X188595238Y-90908190D01*
X189595238Y-90860571D02*
X189928571Y-90860571D01*
X190071428Y-91384380D02*
X189595238Y-91384380D01*
X189595238Y-90384380D01*
X190071428Y-90384380D01*
X190833333Y-90860571D02*
X190500000Y-90860571D01*
X190500000Y-91384380D02*
X190500000Y-90384380D01*
X190976190Y-90384380D01*
X191500000Y-90384380D02*
X191500000Y-90622476D01*
X191261904Y-90527238D02*
X191500000Y-90622476D01*
X191738095Y-90527238D01*
X191357142Y-90812952D02*
X191500000Y-90622476D01*
X191642857Y-90812952D01*
X192261904Y-90384380D02*
X192261904Y-90622476D01*
X192023809Y-90527238D02*
X192261904Y-90622476D01*
X192500000Y-90527238D01*
X192119047Y-90812952D02*
X192261904Y-90622476D01*
X192404761Y-90812952D01*
G04 #@! TD*
M02*
