G04 #@! TF.GenerationSoftware,KiCad,Pcbnew,5.0.1-33cea8e~68~ubuntu16.04.1*
G04 #@! TF.CreationDate,2018-11-08T21:42:09-02:00*
G04 #@! TF.ProjectId,Placa do elevador 2 - macho,506C61636120646F20656C657661646F,rev?*
G04 #@! TF.SameCoordinates,Original*
G04 #@! TF.FileFunction,Copper,L2,Bot,Signal*
G04 #@! TF.FilePolarity,Positive*
%FSLAX46Y46*%
G04 Gerber Fmt 4.6, Leading zero omitted, Abs format (unit mm)*
G04 Created by KiCad (PCBNEW 5.0.1-33cea8e~68~ubuntu16.04.1) date Qui 08 Nov 2018 21:42:09 -02*
%MOMM*%
%LPD*%
G01*
G04 APERTURE LIST*
G04 #@! TA.AperFunction,NonConductor*
%ADD10C,0.150000*%
G04 #@! TD*
G04 #@! TA.AperFunction,ComponentPad*
%ADD11C,4.064000*%
G04 #@! TD*
G04 #@! TA.AperFunction,ComponentPad*
%ADD12C,4.000000*%
G04 #@! TD*
G04 #@! TA.AperFunction,ComponentPad*
%ADD13C,1.600000*%
G04 #@! TD*
G04 #@! TA.AperFunction,ComponentPad*
%ADD14R,1.600000X1.600000*%
G04 #@! TD*
G04 #@! TA.AperFunction,ComponentPad*
%ADD15O,1.350000X1.350000*%
G04 #@! TD*
G04 #@! TA.AperFunction,ComponentPad*
%ADD16R,1.350000X1.350000*%
G04 #@! TD*
G04 #@! TA.AperFunction,Conductor*
%ADD17C,0.500000*%
G04 #@! TD*
G04 #@! TA.AperFunction,NonConductor*
%ADD18C,0.254000*%
G04 #@! TD*
G04 APERTURE END LIST*
D10*
X100330000Y-106934000D02*
X202946000Y-106934000D01*
X100330000Y-36830000D02*
X100330000Y-106934000D01*
X202946000Y-94742000D02*
X202946000Y-106934000D01*
X202946000Y-36830000D02*
X202946000Y-94742000D01*
X100330000Y-36830000D02*
X202946000Y-36830000D01*
D11*
G04 #@! TO.P,REF\002A\002A,1*
G04 #@! TO.N,N/C*
X114300000Y-45720000D03*
G04 #@! TD*
G04 #@! TO.P,REF\002A\002A,1*
G04 #@! TO.N,N/C*
X114300000Y-93980000D03*
G04 #@! TD*
D12*
G04 #@! TO.P,J1,0*
G04 #@! TO.N,N/C*
X128293001Y-60068339D03*
X175393001Y-60068339D03*
D13*
G04 #@! TO.P,J1,25*
G04 #@! TO.N,GND*
X136608001Y-58648339D03*
G04 #@! TO.P,J1,24*
G04 #@! TO.N,Net-(J1-Pad24)*
X139378001Y-58648339D03*
G04 #@! TO.P,J1,23*
G04 #@! TO.N,+12V*
X142148001Y-58648339D03*
G04 #@! TO.P,J1,22*
G04 #@! TO.N,+5VA*
X144918001Y-58648339D03*
G04 #@! TO.P,J1,21*
G04 #@! TO.N,+5V*
X147688001Y-58648339D03*
G04 #@! TO.P,J1,20*
G04 #@! TO.N,M2*
X150458001Y-58648339D03*
G04 #@! TO.P,J1,19*
G04 #@! TO.N,Sensor*
X153228001Y-58648339D03*
G04 #@! TO.P,J1,18*
G04 #@! TO.N,LC*
X155998001Y-58648339D03*
G04 #@! TO.P,J1,17*
G04 #@! TO.N,Net-(J1-Pad17)*
X158768001Y-58648339D03*
G04 #@! TO.P,J1,16*
G04 #@! TO.N,B5*
X161538001Y-58648339D03*
G04 #@! TO.P,J1,15*
G04 #@! TO.N,B3*
X164308001Y-58648339D03*
G04 #@! TO.P,J1,14*
G04 #@! TO.N,B6*
X167078001Y-58648339D03*
G04 #@! TO.P,J1,13*
G04 #@! TO.N,L1*
X135223001Y-61488339D03*
G04 #@! TO.P,J1,12*
G04 #@! TO.N,L3*
X137993001Y-61488339D03*
G04 #@! TO.P,J1,11*
G04 #@! TO.N,L5*
X140763001Y-61488339D03*
G04 #@! TO.P,J1,10*
G04 #@! TO.N,L2*
X143533001Y-61488339D03*
G04 #@! TO.P,J1,9*
G04 #@! TO.N,M1*
X146303001Y-61488339D03*
G04 #@! TO.P,J1,8*
G04 #@! TO.N,L6*
X149073001Y-61488339D03*
G04 #@! TO.P,J1,7*
G04 #@! TO.N,L4*
X151843001Y-61488339D03*
G04 #@! TO.P,J1,6*
G04 #@! TO.N,Net-(J1-Pad6)*
X154613001Y-61488339D03*
G04 #@! TO.P,J1,5*
G04 #@! TO.N,Net-(J1-Pad5)*
X157383001Y-61488339D03*
G04 #@! TO.P,J1,4*
G04 #@! TO.N,B1*
X160153001Y-61488339D03*
G04 #@! TO.P,J1,3*
G04 #@! TO.N,B4*
X162923001Y-61488339D03*
G04 #@! TO.P,J1,2*
G04 #@! TO.N,B2*
X165693001Y-61488339D03*
D14*
G04 #@! TO.P,J1,1*
G04 #@! TO.N,Net-(J1-Pad1)*
X168463001Y-61488339D03*
G04 #@! TD*
D15*
G04 #@! TO.P,J2,4*
G04 #@! TO.N,GND*
X113538000Y-78136000D03*
G04 #@! TO.P,J2,3*
G04 #@! TO.N,+12V*
X113538000Y-76136000D03*
G04 #@! TO.P,J2,2*
G04 #@! TO.N,+5VA*
X113538000Y-74136000D03*
D16*
G04 #@! TO.P,J2,1*
G04 #@! TO.N,+5V*
X113538000Y-72136000D03*
G04 #@! TD*
G04 #@! TO.P,J3,1*
G04 #@! TO.N,B6*
X190246000Y-82550000D03*
D15*
G04 #@! TO.P,J3,2*
G04 #@! TO.N,B3*
X190246000Y-80550000D03*
G04 #@! TO.P,J3,3*
G04 #@! TO.N,B5*
X190246000Y-78550000D03*
G04 #@! TO.P,J3,4*
G04 #@! TO.N,Net-(J3-Pad4)*
X190246000Y-76550000D03*
G04 #@! TD*
G04 #@! TO.P,J4,4*
G04 #@! TO.N,Net-(J4-Pad4)*
X164624000Y-81534000D03*
G04 #@! TO.P,J4,3*
G04 #@! TO.N,B1*
X166624000Y-81534000D03*
G04 #@! TO.P,J4,2*
G04 #@! TO.N,B4*
X168624000Y-81534000D03*
D16*
G04 #@! TO.P,J4,1*
G04 #@! TO.N,B2*
X170624000Y-81534000D03*
G04 #@! TD*
G04 #@! TO.P,J5,1*
G04 #@! TO.N,LC*
X192278000Y-50292000D03*
D15*
G04 #@! TO.P,J5,2*
G04 #@! TO.N,Sensor*
X192278000Y-48292000D03*
G04 #@! TO.P,J5,3*
G04 #@! TO.N,M2*
X192278000Y-46292000D03*
G04 #@! TO.P,J5,4*
G04 #@! TO.N,Net-(J5-Pad4)*
X192278000Y-44292000D03*
G04 #@! TD*
G04 #@! TO.P,J6,4*
G04 #@! TO.N,L1*
X134652000Y-81280000D03*
G04 #@! TO.P,J6,3*
G04 #@! TO.N,L3*
X136652000Y-81280000D03*
G04 #@! TO.P,J6,2*
G04 #@! TO.N,L5*
X138652000Y-81280000D03*
D16*
G04 #@! TO.P,J6,1*
G04 #@! TO.N,L2*
X140652000Y-81280000D03*
G04 #@! TD*
G04 #@! TO.P,J7,1*
G04 #@! TO.N,L4*
X153416000Y-81280000D03*
D15*
G04 #@! TO.P,J7,2*
G04 #@! TO.N,L6*
X151416000Y-81280000D03*
G04 #@! TO.P,J7,3*
G04 #@! TO.N,M1*
X149416000Y-81280000D03*
G04 #@! TO.P,J7,4*
G04 #@! TO.N,Net-(J7-Pad4)*
X147416000Y-81280000D03*
G04 #@! TD*
D11*
G04 #@! TO.P,REF\002A\002A,1*
G04 #@! TO.N,N/C*
X190500000Y-93980000D03*
G04 #@! TD*
D17*
G04 #@! TO.N,B2*
X170624000Y-80359000D02*
X170688000Y-80295000D01*
X170624000Y-81534000D02*
X170624000Y-80359000D01*
X170688000Y-80295000D02*
X170688000Y-78740000D01*
X170688000Y-78740000D02*
X165608000Y-73660000D01*
X165693001Y-73574999D02*
X165693001Y-61488339D01*
X165608000Y-73660000D02*
X165693001Y-73574999D01*
G04 #@! TO.N,B4*
X162923001Y-73769001D02*
X162923001Y-61488339D01*
X168624000Y-79470000D02*
X162923001Y-73769001D01*
X168624000Y-81534000D02*
X168624000Y-79470000D01*
G04 #@! TO.N,B1*
X160153001Y-74108407D02*
X160153001Y-61488339D01*
X166624000Y-80579406D02*
X160153001Y-74108407D01*
X166624000Y-81534000D02*
X166624000Y-80579406D01*
G04 #@! TO.N,L4*
X153416000Y-81280000D02*
X153416000Y-80105000D01*
X151843001Y-78532001D02*
X151843001Y-61488339D01*
X153416000Y-80105000D02*
X151843001Y-78532001D01*
G04 #@! TO.N,L6*
X151416000Y-81280000D02*
X151416000Y-80042000D01*
X149073001Y-77699001D02*
X149073001Y-61488339D01*
X151416000Y-80042000D02*
X149073001Y-77699001D01*
G04 #@! TO.N,M1*
X149416000Y-81280000D02*
X146368000Y-78232000D01*
X146368000Y-78232000D02*
X146368000Y-62294000D01*
X146303001Y-62229001D02*
X146303001Y-61488339D01*
X146368000Y-62294000D02*
X146303001Y-62229001D01*
G04 #@! TO.N,L2*
X140652000Y-64369340D02*
X143533001Y-61488339D01*
X140652000Y-81280000D02*
X140652000Y-64369340D01*
G04 #@! TO.N,L5*
X139963002Y-62288338D02*
X140763001Y-61488339D01*
X138652000Y-63599340D02*
X139963002Y-62288338D01*
X138652000Y-81280000D02*
X138652000Y-63599340D01*
G04 #@! TO.N,L3*
X136652000Y-62829340D02*
X137993001Y-61488339D01*
X136652000Y-81280000D02*
X136652000Y-62829340D01*
G04 #@! TO.N,L1*
X135223001Y-80708999D02*
X134652000Y-81280000D01*
X135223001Y-61488339D02*
X135223001Y-80708999D01*
G04 #@! TO.N,B6*
X167078001Y-58648339D02*
X168884339Y-58648339D01*
X168884339Y-58648339D02*
X177292000Y-67056000D01*
X189071000Y-82550000D02*
X190246000Y-82550000D01*
X177292000Y-70771000D02*
X189071000Y-82550000D01*
X177292000Y-67056000D02*
X177292000Y-70771000D01*
G04 #@! TO.N,B3*
X184912000Y-75216000D02*
X184912000Y-57912000D01*
X190246000Y-80550000D02*
X184912000Y-75216000D01*
X184912000Y-57912000D02*
X181102000Y-54102000D01*
X168854340Y-54102000D02*
X164308001Y-58648339D01*
X181102000Y-54102000D02*
X168854340Y-54102000D01*
G04 #@! TO.N,B5*
X190246000Y-78550000D02*
X191960000Y-78550000D01*
X168116340Y-52070000D02*
X161538001Y-58648339D01*
X184150000Y-52070000D02*
X168116340Y-52070000D01*
X193040000Y-60960000D02*
X184150000Y-52070000D01*
X193040000Y-77470000D02*
X193040000Y-60960000D01*
X191960000Y-78550000D02*
X193040000Y-77470000D01*
G04 #@! TO.N,LC*
X155998001Y-58648339D02*
X156798000Y-57848340D01*
X164338000Y-50292000D02*
X192278000Y-50292000D01*
X156798000Y-57832000D02*
X164338000Y-50292000D01*
X156798000Y-57848340D02*
X156798000Y-57832000D01*
G04 #@! TO.N,Sensor*
X153228001Y-58648339D02*
X154028000Y-57848340D01*
X163544000Y-48292000D02*
X192278000Y-48292000D01*
X154028000Y-57808000D02*
X163544000Y-48292000D01*
X154028000Y-57848340D02*
X154028000Y-57808000D01*
G04 #@! TO.N,M2*
X192278000Y-46292000D02*
X191323406Y-46292000D01*
X162624340Y-46482000D02*
X150458001Y-58648339D01*
X191133406Y-46482000D02*
X162624340Y-46482000D01*
X191323406Y-46292000D02*
X191133406Y-46482000D01*
G04 #@! TO.N,+5V*
X147688001Y-55740001D02*
X147688001Y-58648339D01*
X113538000Y-56896000D02*
X118872000Y-51562000D01*
X143510000Y-51562000D02*
X147688001Y-55740001D01*
X113538000Y-72136000D02*
X113538000Y-56896000D01*
X118872000Y-51562000D02*
X143510000Y-51562000D01*
G04 #@! TO.N,+5VA*
X144918001Y-56272001D02*
X144918001Y-58648339D01*
X141732000Y-53086000D02*
X144918001Y-56272001D01*
X119888000Y-53086000D02*
X141732000Y-53086000D01*
X113538000Y-74136000D02*
X114492594Y-74136000D01*
X117094000Y-71534594D02*
X117094000Y-55880000D01*
X114492594Y-74136000D02*
X117094000Y-71534594D01*
X117094000Y-55880000D02*
X119888000Y-53086000D01*
G04 #@! TO.N,+12V*
X142148001Y-57516969D02*
X140003032Y-55372000D01*
X142148001Y-58648339D02*
X142148001Y-57516969D01*
X140003032Y-55372000D02*
X134874000Y-55372000D01*
X134874000Y-55372000D02*
X127762000Y-55372000D01*
X127762000Y-55372000D02*
X122936000Y-55372000D01*
X122936000Y-55372000D02*
X119634000Y-58674000D01*
X119634000Y-66040000D02*
X119634000Y-72644000D01*
X119634000Y-58674000D02*
X119634000Y-66040000D01*
X119634000Y-66040000D02*
X119634000Y-66294000D01*
X119634000Y-72644000D02*
X119380000Y-72644000D01*
X119380000Y-72644000D02*
X115888000Y-76136000D01*
X115888000Y-76136000D02*
X113538000Y-76136000D01*
G04 #@! TO.N,GND*
X135476631Y-58648339D02*
X135450970Y-58674000D01*
X136608001Y-58648339D02*
X135476631Y-58648339D01*
X135450970Y-58674000D02*
X134874000Y-58674000D01*
X134874000Y-58674000D02*
X133096000Y-60452000D01*
X133096000Y-60452000D02*
X133096000Y-70866000D01*
X125826000Y-78136000D02*
X113538000Y-78136000D01*
X133096000Y-70866000D02*
X125826000Y-78136000D01*
G04 #@! TD*
D18*
G36*
X149873000Y-99873000D02*
X140127000Y-99873000D01*
X140127000Y-90127000D01*
X149873000Y-90127000D01*
X149873000Y-99873000D01*
X149873000Y-99873000D01*
G37*
X149873000Y-99873000D02*
X140127000Y-99873000D01*
X140127000Y-90127000D01*
X149873000Y-90127000D01*
X149873000Y-99873000D01*
M02*
